<?xml version="1.0" standalone="no"?>
<!DOCTYPE svg PUBLIC "-//W3C//DTD SVG 1.1//EN" "http://www.w3.org/Graphics/SVG/1.1/DTD/svg11.dtd">
<svg xmlns="http://www.w3.org/2000/svg">
<metadata>Generated by Fontastic.me</metadata>
<defs>
<font id="untitled-font-1" horiz-adv-x="512">
<font-face font-family="untitled-font-1" units-per-em="512" ascent="480" descent="-32"/>
<missing-glyph horiz-adv-x="512" />

<glyph glyph-name="balance-sheet" unicode="&#97;" d="M45 482c-6-3-14-9-19-14-17-17-16-9-16-206l0-179 28-27c36-36 34-36 67-3l25 25 28-26c19-19 29-26 34-26 4 0 13 7 32 26l27 26 16-16c9-9 17-16 18-16 0 0 0 11 0 24l-1 23-13 12c-9 8-16 13-20 13-5 0-14-8-33-26l-27-25-26 25c-34 33-33 33-65 1l-25-25-16 14-15 13 0 173c1 164 1 172 6 177 14 16 45 5 45-15 0-16-7-23-27-28-18-4-22-23-7-31 4-1 53-2 141-2l136 0 0-141 33 0 0 142 10 5c21 9 34 30 34 53 0 23-14 44-35 54-10 4-20 4-168 4-147 0-157 0-167-4z m324-33c14-7 17-24 5-37l-7-9-122-1-122 0 2 6c4 9 4 30 0 38l-2 7 119 0c101 0 120 0 127-4z m-122-127c-11-3-15-8-9-14 2-1-5-11-17-26-11-13-21-23-22-23-1 0-9 5-18 12-15 13-22 15-24 9-1-3 39-37 43-37 1 0 12 13 26 28 22 27 23 28 29 24 7-4 8-3 9 15 1 16 0 16-17 12z m-16-60c-2-2-3-11-3-37l1-34 15-1 15-1-1 37-1 36-11 1c-7 0-13 0-15-1z m-84-25c-1-1-1-13-1-25l1-21 28 0 0 48-13 1c-10 1-14 0-15-3z m43-16c-2-2-3-7-3-16l1-14 28 0 0 30-11 1c-7 0-13 0-15-1z m143-16c-7-3-16-7-19-10l-7-6 0-120 7-7c8-6 24-12 45-15 13-1 14-2 13-9-1-6 0-9 7-16 12-12 31-17 60-17 27 0 46 5 58 14l7 7 0 34c0 38 0 39-19 49-7 3-34 8-45 9 0 0-1 15 0 33l1 34-9 8c-12 12-30 17-61 17-16 0-28-2-38-5z m3-50c17-5 56-5 73 0 15 4 16 4 16 0 0-8-29-17-53-17-23 0-52 9-52 17 0 4 1 4 16 0z m0-26c17-5 56-5 73 0 15 5 16 5 16 0 0-2-5-6-12-9-18-8-63-8-81 0-7 3-12 7-12 9 0 5 1 5 16 0z m68-69c8-2 24-4 35-4 11 0 27 2 35 4 18 5 18 5 18 0 0-5-17-12-37-15-26-4-68 5-68 15 0 5-1 5 17 0z m-1-25c16-5 56-5 72 0 16 4 17 4 17 0 0-8-29-17-53-17-24 0-52 9-52 17 0 4 0 4 16 0z m-277 145c-4-10 5-11 78-11 72 0 81 1 77 11-2 4-10 4-77 4-68 0-76 0-78-4z"/>
<glyph glyph-name="calculator" unicode="&#98;" d="M70 509c0-2-1-117 0-256l0-252 183 0 182-1 0 255-1 256-181 0c-144 1-182 0-183-2z m345-253l0-236-325 0 0 472 325 0z m-301 213c-3-4-4-13-4-70 0-65 0-66 6-70 5-3 22-4 137-4 131 0 139 1 144 9 1 1 2 31 2 66 0 60 0 64-5 68-5 5-8 6-140 6-128 0-136-1-140-5z m262-70l0-51-243 0 0 103 243 0z m-68 40c-6-4-6-6-6-37 0-19 1-36 3-39 2-4 5-5 27-5 35 0 34-1 34 41 0 44 0 44-32 44-15 0-22-1-26-4z m-194-136c-3-5-4-12-4-59 0-47 1-54 4-57 4-3 18-4 59-5 47 0 55 0 62 4l8 4 0 54c0 50 0 55-4 59-5 4-13 4-63 4-52 0-58 0-62-4z m106-58l0-39-87 0 0 78 87 0z m-74 9c-7-5-6-13 2-18 9-4 48-4 57 0 8 4 9 11 3 17-5 5-9 6-31 6-19 0-26-1-31-5z m119 49c-3-5-4-12-4-58 0-50 0-52 5-57 5-4 10-5 63-5 44 0 58 1 61 4 4 3 4 10 4 59 0 53 0 56-5 59-3 1-27 2-62 2-52 0-58 0-62-4z m106-58l0-39-87 2 0 76 87 0z m-66 25c-7-5-7-9 1-17l6-6-7-7c-13-14 0-29 16-17l7 5 6-5c14-14 30 2 16 17l-5 6 7 7c5 7 6 9 4 13-4 7-16 7-22 0-5-5-5-5-12 2-9 7-9 7-17 2z m-191-110c-3-4-4-13-4-59 0-49 1-54 5-58 4-4 12-5 62-5 53 0 58 1 62 5 4 4 4 12 4 59 0 49 0 54-4 57-5 4-13 5-63 5-49 0-58-1-62-4z m106-59l0-40-87 0 0 80 87 0z m-54 29c-1-3-2-8-1-11 1-6 0-6-8-6-8 0-16-6-16-12 0-5 9-11 16-11 6 0 7-1 7-8 0-4 2-9 4-11 9-9 23-2 21 11-1 7-1 8 7 8 8 0 16 6 16 12 0 5-8 11-16 11-8 0-8 0-7 6 1 9-4 17-12 17-5 0-9-2-11-6z m99 29c-6-7-6-106 0-115 4-6 5-6 62-6 34 0 59 1 62 3 5 3 5 6 5 60 0 54 0 58-5 60-3 2-27 3-62 3-52 0-58-1-62-5z m106-58l0-40-87 0 0 80 87 0z m-75 25c-5-6-5-9 0-14 4-4 11-4 31-4 28 0 37 2 37 10 0 10-7 13-36 13-24 0-28-1-32-5z m0-35c-5-5-5-8 1-14 4-5 8-5 32-5 28 0 35 2 35 12 0 9-6 11-35 11-23 0-30-1-33-4z"/>
<glyph glyph-name="claim-assignment" unicode="&#99;" d="M146 481c-2-13-3-26-3-27 0-3-8-3-28-3l-28 0 0-235-18-18-19-19 6-6c4-4 7-7 9-7 2 0 19 17 39 37 33 33 37 36 41 32 3-4 0-7-33-40-21-19-38-37-38-38 0-1 5-7 10-12l10-9 19 17c10 9 27 26 37 36 17 18 19 19 23 16 4-5 1-9-47-55-13-13-24-24-24-25 0-2 12-12 14-12 1 0 5 2 8 6 3 3 20 20 39 37 33 32 39 40 37 46 0 1 1 3 2 3 2 0 3 2 2 4-1 2 0 4 1 5 1 1 2 2 1 4-1 1 0 3 2 3 1 1 2 4 1 6-1 2 0 3 1 3 1 0 2 2 2 4 0 1 0 5 1 7 3 7 12 34 12 36 0 4-12 2-54-8l-43-10-14-15-14-15 0 206 248 0 0-26c0-17 1-28 3-30 2-2 13-3 33-3l29 0 0-180-1-181-312 0 0 40c0 36 0 39 5 44 3 2 5 6 5 7 0 4-61 68-65 68-5 0-32-32-32-38 0-5 7-14 26-34 28-29 33-32 43-23 5 4 5 2 5-35l0-39 341 0 0 24 8-2 8-1 20 204c21 209 24 244 22 244-1 0-72 7-157 15-85 8-161 15-167 15l-12 0z m290-16c20-2 36-5 37-5 1-2-12-140-33-336-4-39-7-74-7-77 0-3-1-6-3-6-2 0-2 60-2 174l0 174-18 16c-9 9-24 23-34 31l-16 15-204 0 1 7c1 4 2 13 3 21l2 14 119-12c66-7 136-14 155-16z m-229-202c2-2 2-4 2-5-1-1-5-14-10-30l-9-28-25 27c-23 25-24 26-17 26 4 0 17 3 30 7 28 7 26 7 29 3z m-86 30l1-8 261 0 0 8 1 7-264 0z m102-60l0-8 161 0-1 7 0 7-80 1-80 1z m62-56c-64-1-93-3-97-5-3-1-4-3-3-4 1-1 158-2 196-2 1 0 3 3 3 5 0 3-2 5-3 6-2 0-45 0-96 0z m-156-64c-4-3-6-6-6-8 0-2 37-2 130-2l130 1 0 7 1 7-125 0c-118 0-125-1-130-5z"/>
<glyph glyph-name="claim-registration" unicode="&#100;" d="M355 507c-15-5-25-5-164-5-132 0-149-1-157-4-17-9-16 5-16-249l0-229 9-9 8-8 333 0 10 7 9 8 0 268 14 1c32 3 63 22 81 49 13 19 17 32 19 54 6 78-72 141-146 117z m66-21c20-7 42-28 52-49 6-14 7-19 7-39 0-20-1-25-7-37-11-22-23-35-45-45-17-9-21-10-40-10-26 0-44 7-62 23-28 25-39 68-26 102 14 38 46 60 87 61 14 0 24-2 34-6z m-120-15c-31-34-36-87-12-128l8-13-49 0c-51 0-56-1-56-11 0-8 9-9 67-9l58 0 14-9c8-5 19-9 25-10l10-2 0-132c0-122 0-131-4-133-3-2-72-3-161-2-129 0-157 0-161 3-4 3-4 22-4 225 0 148 1 223 2 226 3 5 7 5 138 5l134 0z m42-13c-5-2-5-8-5-59 0-53 0-56 5-59 6-3 83-3 90 0 2 2 5 5 5 8 0 9-5 10-43 10l-37 0 0 82 36 0c20 0 37 1 40 2 5 2 5 13-1 16-7 4-85 4-90 0z m67-46l-16-16-5 5c-4 3-8 6-10 7-3 2-13-5-13-10 0-4 25-27 28-26 2 0 13 10 25 22 23 23 27 31 14 33-5 1-10-3-23-15z m-322 61c-13-6-21-19-21-32 0-6 1-15 4-19 3-8 3-8-4-16-5-5-10-14-12-20-3-12-2-32 2-35 2 0 23-1 48-1 52 0 53 0 50 23-2 16-6 25-17 35l-7 7 5 7c8 10 7 29-2 39-12 14-30 18-46 12z m32-75c7-4 16-17 16-25 0-4-5-4-31-4l-32 0 2 9c3 20 26 30 45 20z m-8-63c-4-2-4-7-4-32 0-16 0-30 1-33 1-3 6-4 30-4 19 0 30 1 32 3 2 2 3 13 3 34 0 27 0 30-5 32-6 4-51 4-57 0z m83-46c-4-4-4-11 0-15 4-4 135-4 140 0 4 5 4 15-1 16-2 1-34 2-70 2-48 0-67-1-69-3z m-84-62c-5-4-5-61 0-65 4-4 56-4 60 0 4 4 4 61 0 65-4 4-56 4-60 0z m82-8c-1-2-1-6 0-8 0-5 5-5 72-5l72 0 0 15-72 1c-60 1-71 0-72-3z m4-35c-6-3-6-11-1-15 2-2 23-3 72-2l69 1 0 6c2 12-2 13-72 13-39 0-66-1-68-3z m-85-62c-4-3-4-7-4-35l1-32 30-1c23 0 31 1 33 3 1 2 2 17 2 33 0 30 0 31-7 33-9 4-50 3-55-1z m83-7c-5-5-4-12 2-15 3-2 30-3 68-3 69 0 74 1 72 13l0 6-69 1c-52 1-71 0-73-2z m0-39c-2-2-3-5-3-7 0-10 4-10 72-10 36 0 68 1 70 1 5 2 5 16 0 18-2 1-34 1-70 1-48 0-67 0-69-3z"/>
<glyph glyph-name="claim-search" unicode="&#101;" d="M283 454c-21-29-39-52-39-50 0 1-3 16-6 32-2 17-6 32-8 34-3 3-26 0-114-14-61-10-112-19-113-20-6-3-4-15 34-253 4-22 5-27 9-28 5-2 39 2 49 5 4 2 5-2 5-44l1-46 115 0c83-1 116 0 118 2 2 2 4 8 4 15 0 10 1 13 7 17 6 4 6 4 15-4 8-8 8-9 5-13-2-2-4-6-4-8 0-6 75-79 81-79 5 0 34 27 34 32 0 2-18 20-40 42l-39 40-7-4c-8-4-8-4-17 4-7 7-8 9-6 11 7 6 18 33 21 53l3 21 60 83c34 46 61 86 61 89 0 7-177 136-186 136-4 0-13-11-43-53z m130-29l78-57-41-56c-23-32-47-65-54-75l-13-17-6 13c-7 13-22 31-33 39-6 3-6 6-6 22l1 18 21-15c11-8 22-15 24-15 5 0 10 4 10 9 0 2-12 13-28 24-26 19-28 21-29 30l0 10-14 1c-10 1-18 3-25 8-11 8-19 6-19-3 0-5-2-5-22-5-12 0-21 1-21 2 1 1 22 30 47 65 29 41 46 63 48 61 2-1 38-28 82-59z m-191-9l6-37-16-22-111-2-2-39-12-2c-14-2-20-8-16-14 2-3 6-4 16-4l13 1 0-48-8-2c-16-5-16-19 0-19l8 0 0-48-21-3c-11-2-21-3-21-3 0 1-4 22-8 47-4 26-12 81-19 123-7 43-12 77-12 77 0 0 44 8 97 16 54 8 99 16 99 16 1 0 4-17 7-37z m98-105c0-25 0-27-4-25-6 2-150 4-159 2-5-1-6-3-5-8l0-7 37-1 38-1-13-13c-7-8-16-19-18-25l-5-10-17 0c-17 0-23-3-23-11 0-6 8-10 21-10l12 0 1-19c1-11 2-22 3-25 2-4 0-4-17-5-17-1-19-1-19-7-2-9 3-10 26-10l20-1 10-12c11-14 26-25 44-31l13-5-74 0-73 0 0 251 202 0z m2-48c16-8 31-23 39-39 5-11 6-16 6-37 0-21-1-26-7-37-8-16-22-29-37-38-10-5-16-6-36-6-21 0-27 1-37 6-62 31-62 118-1 149 22 12 49 12 73 2z m102-202l29-29-6-6-6-6-29 30c-29 29-29 29-24 34 2 3 5 6 6 6 1 0 15-13 30-29z m-102 360c-3-2-5-5-5-6 0-3 15-15 64-50 34-25 43-30 46-28 10 6 7 13-17 30-49 36-80 58-82 58-2 0-4-2-6-4z m-196-32c-33-5-61-11-63-13-5-4-5-8 0-12 3-3 15-2 64 6 34 5 63 11 64 12 5 4 4 12-1 14-3 2-25-1-64-7z m139-137c-21-7-36-23-44-44-15-42 19-88 65-88 63-1 92 78 44 119-18 15-44 21-65 13z m45-22c34-17 33-70-1-86-29-14-63 1-70 32-3 11-1 26 4 35 4 8 20 22 27 23 13 3 16 3 23 2 4-1 12-3 17-6z"/>
<glyph glyph-name="collection" unicode="&#102;" d="M268 463c-41-5-68-20-68-39 0-17 23-31 59-38 7-1 15-1 29-1 14 0 22 0 29 1 37 7 59 21 59 38 0 17-23 32-58 38-11 1-40 2-50 1z m-76-77c1-24 1-25 3-30 8-16 33-29 67-34 10-2 42-2 53 0 33 5 58 18 66 34 2 5 3 6 3 30 0 17 0 24-1 22-2-5-7-12-13-17-12-9-26-15-47-20-11-2-14-2-35-2-21 0-24 0-35 2-21 5-35 11-46 20-7 5-12 12-14 17-1 2-1-5-1-22z m0-62c0-25 1-29 6-37 11-14 39-26 68-30l6 0 0 4c2 15 14 30 31 40l6 3-22 1c-19 0-23 0-34 2-21 5-35 11-46 20-7 5-12 12-14 17 0 2-1-4-1-20z m191 22c0-6-8-16-17-22l-7-5 12 1c7 0 13 0 13 0 0 1 0 7 0 14 0 7-1 13-1 12z m-19-43c-41-5-68-20-68-39 0-17 23-31 59-38 7-1 15-1 29-1 14 0 22 0 29 1 37 7 59 21 59 38 0 17-23 32-58 38-11 1-40 2-50 1z m-256-32c-41-5-68-20-68-39 0-17 23-31 59-38 7-1 15-1 29-1 14 0 22 0 29 1 37 7 59 21 59 38 0 17-23 32-58 38-11 1-40 2-50 1z m180-45c1-24 1-25 3-30 8-16 33-29 67-34 10-2 42-2 53 0 33 5 58 18 66 34 2 5 3 6 3 30 0 17 0 24-1 22-2-5-7-12-13-17-12-9-26-15-47-20-11-2-14-2-35-2-21 0-24 0-35 2-21 5-35 11-46 20-7 5-12 12-14 17-1 2-1-5-1-22z m-54 20c5-8 6-15 6-32l0-16 7-1c9-2 19-4 23-4l2 0 0 48-18 3c-10 2-19 4-20 5-2 0-2 0 0-3z m-202-52c1-24 1-25 3-30 6-13 24-24 49-30 15-4 24-5 44-5 20 0 29 1 44 5 25 6 43 17 49 30 2 5 3 6 3 30 0 17 0 24-1 22-2-5-7-12-13-17-12-9-26-15-47-20-11-2-14-2-35-2-21 0-24 0-35 2-21 5-35 11-46 20-7 5-12 12-14 17-1 2-1-5-1-22z m256-32c1-24 1-25 3-30 8-16 33-29 67-34 10-2 42-2 53 0 33 5 58 18 66 34 2 5 3 6 3 30 0 17 0 24-1 22-2-5-7-12-13-17-12-9-26-15-47-20-11-2-14-2-35-2-21 0-24 0-35 2-21 5-35 11-46 20-7 5-12 12-14 17-1 2-1-5-1-22z m-48-4l0-24 7-1c9-2 19-4 23-4l2 0 0 48-3 0c-4 0-19 3-26 4l-3 1z m-208-28c1-24 1-25 3-30 8-16 33-29 67-34 10-2 42-2 53 0 33 5 58 18 66 34 2 5 3 6 3 30 0 17 0 24-1 22-2-5-7-12-13-17-12-9-26-15-47-20-11-2-14-2-35-2-21 0-24 0-35 2-21 5-35 11-46 20-7 5-12 12-14 17-1 2-1-5-1-22z m256-32c1-24 1-25 3-30 8-16 33-29 67-34 10-2 42-2 53 0 33 5 58 18 66 34 2 5 3 6 3 30 0 17 0 24-1 22-2-5-7-12-13-17-12-9-26-15-47-20-11-2-14-2-35-2-21 0-24 0-35 2-21 5-35 11-46 20-7 5-12 12-14 17-1 2-1-5-1-22z"/>
<glyph glyph-name="collection-search" unicode="&#103;" d="M195 490c-97-12-167-57-167-108 0-30 26-61 67-81 112-55 291-28 337 49 6 10 7 15 7 31 0 17-1 21-7 31-19 33-68 61-127 73-19 4-93 7-110 5z m-167-206c0-43 0-45 7-58 9-19 34-41 60-54 24-12 61-22 86-25l16-2 1 14c1 7 4 20 7 28 5 14 19 38 23 38 1 0 2 1 2 3 0 1-10 2-23 3-47 4-83 14-120 33-23 12-46 34-51 50-7 20-8 14-8-30z m289-38c-31-10-53-30-66-58-21-44-12-91 23-125 34-33 79-40 122-21l15 7 19-20c17-16 21-19 30-21 10-1 12 0 19 7 5 6 7 10 7 17 0 8-2 12-20 31l-21 21 6 16c9 22 11 39 7 59-6 36-28 65-60 81-18 8-22 9-43 10-18 1-27 0-38-4z m66-39c43-22 53-83 19-117-28-28-77-28-105 0-25 25-28 70-5 98 9 10 26 21 39 25 15 4 38 1 52-6z m-355-51c0-41 1-46 6-57 16-34 61-62 122-76 36-9 133-10 133-2 0 1-2 2-4 2-9 0-36 17-50 31-8 8-18 21-23 31-4 9-8 16-8 17-1 0-9 2-19 3-25 4-58 12-76 20-38 16-68 42-74 64-1 6-4 11-5 11-1 0-2-20-2-44z"/>
<glyph glyph-name="ledger-report" unicode="&#104;" d="M65 508c-13-4-30-23-34-36-4-15-4-349 0-362 4-13 16-27 29-34 8-4 16-5 41-6l30-1 0-15c0-18 7-34 21-45l10-8 141 0 141-1 10 6c6 3 14 11 18 17l8 11 1 142 0 143-50 55-49 55-1 17c0 9-1 22-4 28-5 15-22 31-35 35-7 2-55 3-138 3-104 0-131-1-139-4z m283-29c10-9 10-11 10-24l0-15-87 0c-97 0-107-1-122-15-4-4-9-6-9-5-2 0-2 0-2-1 1-2-1-7-3-12-4-9-4-26-4-163l0-152-28 0c-25 0-29 1-37 6-4 3-10 9-11 12-3 5-4 47-4 183l0 176 20 20 267 0z m10-110c0-26 0-52 0-57l0-10 103 0 0-127c0-140 0-140-17-150-7-4-15-5-140-5-131 0-132 0-139 6-14 11-14 8-14 193 0 189 0 183 16 193 8 5 15 5 99 5l92 0z m60-13l28-31-67 0 0 38 0 38 6-7c3-4 18-21 33-38z m-31-138l0-52 20 0 0 103-20 0z m-177-6l0-46 20 0 0 93-20 0z m118-6l0-40 20 0 1 40 0 40-21 0z m-59-13l0-27 20 0 0 54-20 0z m-69-80l0-11 217 0 0 21-217 0z"/>
<glyph glyph-name="policy-issue" unicode="&#105;" d="M105 433c-23-22-47-46-53-51l-10-11-1-139c0-154 0-160 14-176 17-18 14-18 135-18l108 0-11 12-12 11-191 0-9 9-8 9 0 277 28 0c39 0 52 6 64 29 5 8 6 17 7 38l1 28 88 0c97 0 100-1 107-16 4-6 4-21 4-93l0-86 23 0 0 90c-1 86-1 91-7 101-2 5-10 14-16 18l-11 7-103 1-104 1z m93-66c-3-2-6-6-6-9 0-2 3-6 6-8 4-4 15-4 64-4 50 0 60 0 65 4 3 2 6 6 6 8 0 3-3 7-6 9-5 3-15 4-65 4-49 0-60-1-64-4z m-97-51c-2-2-4-6-4-9 0-2 2-6 4-9 4-3 18-4 112-4 94 0 109 1 114 4 7 5 7 13 0 18-5 3-20 4-114 4-94 0-108-1-112-4z m0-51c-2-2-4-6-4-9 0-3 2-7 4-9 4-3 18-4 112-4 94 0 109 1 114 4 7 5 7 13 0 18-5 3-20 4-114 4-94 0-108-1-112-4z m242-46c-40-16-61-50-58-93 2-33 22-63 52-77 13-6 18-7 41-7 23 0 26 1 40 8 55 28 69 100 27 145-18 21-36 28-65 30-20 0-25 0-37-6z m56-34c11-9 11-9 11-26 0-14-2-21-7-31-9-17-7-20 14-27l16-5-10-9c-16-16-25-19-48-19-14 0-23 1-28 4-9 5-24 19-24 22 0 1 7 4 16 7 19 7 20 10 11 30-7 15-8 23-5 23 1 0 2 2 1 5-1 10 6 25 15 30 14 8 25 7 38-4z m-298 29c-2-3-4-7-4-9 0-3 2-7 4-9 4-3 15-4 86-4l82 0 3 7c2 4 6 9 8 11 2 2 4 4 4 5 0 2-40 3-89 3-78 0-90-1-94-4z m0-52c-4-4-5-10-1-16 2-3 14-4 77-5l76 0 1 9c1 6 2 12 2 13 0 3-17 3-75 3-65 0-76 0-80-4z m-1-52c-7-6-7-9 0-15 5-5 8-5 83-5l77 0-3 12-3 12-74 1c-72 0-75 0-80-5z"/>
<glyph glyph-name="policy-search" unicode="&#106;" d="M55 510c-3-1-4-47-4-221 0-245-1-228 18-228l10 0 0-11c0-15 4-19 18-19l11 0 0-13c0-9 1-13 4-14 7-3 310-2 310 1 0 2-4 8-10 14-7 8-13 12-17 12-5 0-6 1-5 4 1 3-1 7-8 14l-9 10-135 0-134 1 130 1c85 0 130 1 130 3 0 2-5 8-11 14l-11 12-263 0 0 198-1 198 305 0-1-175-1-175 11-12c6-6 12-11 14-11 3 0 4 26 3 171 0 95 0 172 1 172 1 0 2-80 2-176l0-177 10-9c5-5 10-10 11-10 1 0 2 78 3 173l0 172 1-175 1-175 10-11c6-7 12-12 13-12 1 0 2 86 2 198l-1 198-13 1-14 0 0 28-27 0 0 30-175 0c-97 0-177 0-178-1z m147-137c-19-4-37-13-55-27-14-11-36-38-38-46-1-2-4-11-7-20-8-22-8-62 0-84 3-9 6-18 7-20 2-8 9-18 25-35 19-20 51-36 79-41 33-6 74 4 101 25l9 6 15-15c8-8 15-17 15-19 0-2 22-25 47-50 50-50 53-52 66-43 8 6 10 9 10 17 0 5-10 16-46 52-27 27-50 48-56 50-5 2-14 10-21 17-10 10-11 12-7 14 5 5 22 42 25 58 11 57-20 121-71 149-26 14-63 18-98 12z m75-44c15-7 34-23 43-36 3-5 5-9 4-9-1 0 1-5 4-12 5-9 6-17 6-34 0-39-18-70-51-88-49-27-98-14-136 36-3 3-5 8-5 9 1 1 0 2-1 2-2 0-3 1-2 2 1 1 0 8-2 15-5 16-5 30 1 51 7 28 21 46 48 62 16 9 24 11 53 10 20-1 26-2 38-8z"/>
<glyph glyph-name="proforma-search" unicode="&#107;" d="M138 510c-7-4-16-13-16-18 0-3-1-204-1-225 0-5 1-5 2-5 1 1 3 1 5 1 2 1 6 2 9 3 3 2 7 3 10 3 2 1 5 2 5 2 0 1 1 48 1 105l0 105 203 0 0-38c0-49 0-54 2-55 1-2 5-8 5-9 0-1 0-2 1-3 2-1 2-1 2-1 0 1 2 0 4-1 1-2 3-3 4-3 0 0 0 0 0-1-2-3 16-4 58-4 28 1 38 0 38 0 0-1 1-77 1-168l0-167-159 0-160 0 1 8 0 8-4 1c-2 0-6 1-8 2-2 0-5 1-5 1-3 0-11 3-11 4 0 1-1 1-2 1l-2 0 0-15c0-18 1-24 2-27 1-1 1-1 1-1 0 1 5-5 7-8 1-1 2-2 3-2 0 0 3 0 5-1 5-2 16-2 174-2 94 0 171 1 173 1 6 1 15 11 15 16 0 1 1 6 1 10 1 9 1 348 0 357-1 9-2 12-2 12-1-1-6 5-6 7-1 2-2 4-3 4-1 0-6 5-7 7 0 1-2 2-3 3-2 1-6 5-7 7 0 1-2 2-3 3-2 1-6 5-7 7 0 1-2 2-3 3-2 1-6 5-7 7 0 1-2 2-3 3-2 1-6 5-7 7 0 1-2 2-3 3-2 1-6 5-7 7 0 1-2 2-3 3-2 1-6 5-7 7 0 1-2 2-3 3-2 1-6 5-7 7 0 1-2 2-3 3-2 1-6 5-7 7 0 1-2 2-3 3-2 1-5 4-7 7-1 1-2 2-3 3 0 0-3 1-6 2l-4 2-119 1-119 0z m253-49c0 0 2-1 4-3 2-2 3-4 3-4 0 0 0-2 1-3 2-1 2-1 2-1 0 1 2 0 4-2 2-2 3-4 3-4 0 0 0-2 1-3 2-1 2-1 2-1 0 1 2 0 4-2 2-2 3-4 3-4 0 0 0-2 1-3 2-1 2-1 2-1 0 1 2 0 4-2 2-2 3-4 3-4 0 0 0-2 1-3 2-1 2-1 2-1 0 1 2 0 4-2 2-2 3-4 3-4-1-1 3-4 3-4 1 1 3-1 4-3 2-1 3-3 3-3 0 0 0-1 1-2 1-1 2-2 2-2 1 1 2 0 2 0 1-1-5-2-31-2l-33 0 0 4c-1 4-2 47-1 55 1 4 1 5 2 4 1-1 1-1 1 0z m-229-204c-2-1-6-1-11-2-7 0-13-1-15-3-1 0-3-2-6-3-3-1-9-4-12-6-3-2-6-3-7-3 0 1-1 0-2-1-1-1-1-1 1 0 2 1 2 1 1 0-1-1-2-2-3-1-1 0-18-16-21-20-1-2-1-2 1-1 0 0 0-1-1-3-2-2-5-8-7-13-3-5-6-11-7-13-1-2-1-5-1-7 0-2-1-7-2-11-1-11-1-24 2-34 2-4 2-8 2-8-1-1 0-2 1-2 1-2 5-10 5-12 0-1 0-2 1-2 0 0 2-2 3-4l2-3-7-7c-5-5-6-6-9-5-3 0-5-2-32-29-30-30-32-32-28-35 1-1 1-2 1-3 0 0 1-1 2-2 3-1 8-6 8-8 0 0 2-2 5-4 2-2 4-4 4-6 1-1 3-3 4-3 1-1 3-1 3-2 1-1 7-1 8 0 1 1 2 1 1 0 0-1 12 11 28 27l28 28 0 4c-1 4 0 5 6 11l6 6 3-3c2-2 4-3 5-3 2 0 9-3 9-4 0-1 0-1 1-1 0 0 2 0 4-1 2 0 5-1 7-2 8-2 22-3 37-2 10 1 11 1 16 3 19 9 22 11 22 10-2-4 15 10 21 16 7 7 13 15 12 17 0 0 0 1 1 2 0 0 0 0 0-1-1-1 0-1 0-1 1 1 1 1 1 2 0 0 1 3 2 7 2 3 4 7 4 9 1 3 2 5 3 7 1 1 2 5 2 10 0 4 1 10 2 12 1 4 1 6 0 9-1 2-1 6-1 10 0 3-1 6-1 7-1 1-2 4-3 10 0 2-1 4-2 5-1 1-5 9-4 9 0 1-2 5-2 5-1-1-3 2-5 5-1 4-3 7-4 6 0 0-5 5-6 8 0 1-1 2-2 3-3 1-9 5-8 6 0 0-1 1-2 2-2 1-5 2-6 3-2 1-4 2-4 3 0 0-4 2-8 3-3 1-6 3-6 3 0 1 0 1-1 1-6 1-9 1-13 3-3 0-8 1-11 1-3 0-7 1-9 1-2 1-4 0-6 0z m18-27c3-1 8-2 10-3 3-2 5-3 6-2 1 0 7-3 9-6 1-1 3-2 3-2 2 1 18-15 17-16 0 0 0-2 2-3 3-2 5-6 6-11 0-2 1-3 1-3 3 0 5-17 5-35-1-7-4-18-7-21 0-1-2-4-4-6-6-12-27-29-39-32-3-1-8-2-10-3-3 0-8 0-11-1-4 0-6 0-10 1-3 1-5 2-6 1-1 0-8 2-10 4 0 0-2 1-4 1-3 1-9 4-9 5 0 1-2 2-4 3-4 2-9 6-7 6 0 0 0 1-1 2-1 1-2 2-3 1-1 0-6 7-5 8 0 0-1 2-2 3-3 2-5 6-6 11 0 2-1 4-2 3 0 0-2 7-3 13-1 20 2 38 10 47 1 2 4 6 7 9 4 5 14 14 22 19 4 3 15 6 19 6 2 0 4 0 6 1 2 1 8 1 20 0z"/>
<glyph glyph-name="voucher-listing" unicode="&#108;" d="M56 257l0-254 392 0 0 220 0 221-36 34-35 34-321 0z m300 192l0-27 56 0 0-384-320 0 0 438 264 0z m-185-74c-2-1-9-8-14-16-9-14-10-15-15-12-5 3-6 3-11 0-9-6-7-14 6-27 14-14 19-13 29 6 3 7 10 18 14 24 4 6 7 12 6 15-1 5-9 11-15 10z m46-26c-6-7-6-18 1-22 5-4 17-4 79-4 71 0 74 0 79 5 6 6 7 12 1 20-3 5-4 5-80 5-70 0-76 0-80-4z m-62-60c-3-5-8-12-11-16-2-4-5-6-5-4-2 3-14 3-18-1-2-2-3-5-3-7 0-7 20-28 25-28 5 0 11 6 14 14 1 2 6 11 12 19 11 16 13 27 6 29-8 3-14 2-20-6z m63-17c-7-4-7-16-1-22 4-4 14-4 81-4 75 0 76 0 79 5 6 8 5 14-1 20-5 5-8 5-79 5-62 0-74 0-79-4z m-59-57c-3-4-8-10-11-15-3-5-6-10-6-10 0-1-3 0-6 2-7 4-18-3-18-10 0-6 13-22 21-26 5-3 17 3 17 9 0 2 5 11 12 21 12 18 14 27 6 32-7 3-9 3-15-3z m58-17c-6-7-6-17 0-22 4-4 14-4 79-4 72 0 75 0 80 5 6 6 7 12 1 20-3 5-4 5-80 5-70 0-76 0-80-4z m-62-68c-3-5-8-11-10-16-4-5-6-6-8-4-6 5-15 2-18-6-2-6-1-8 10-19 13-14 22-14 27 0 2 4 8 15 13 23 11 16 12 22 7 27-6 6-14 3-21-5z m66-7c-11-5-11-24 1-29 3-1 38-2 76-2l71 0 6 7c8 7 8 14 0 21-7 5-10 5-78 5-39 0-73-1-76-2z"/>
<glyph glyph-name="agriculture" unicode="&#109;" d="M91 492c-9-21-17-53-17-69 0-13 7-26 16-31 3-2 10-3 16-2 19 2 25 18 19 49-4 18-22 68-25 68-1 0-5-7-9-15z m336-59c-35-37-45-63-32-78 14-16 34-12 45 9 3 6 7 21 9 32 4 25 5 60 2 60-1 0-12-11-24-23z m-241 16c4-11-16-37-38-49-43-21-55-43-36-63 17-18 45-2 62 35 14 31 22 81 13 81-1 0-2-2-1-4z m-177-15c2-36 17-75 35-92 16-16 38-15 47 2 9 17-3 37-34 52-23 12-37 25-44 43l-6 13z m335 3c-10-12-20-63-18-86 4-37 32-59 52-39 13 14 9 35-12 60-16 20-24 43-20 60 2 9 1 10-2 5z m-158-63c3-5-7-25-17-35-5-5-19-14-30-20-24-13-35-26-35-40 0-13 11-26 22-26 9 0 24 8 32 16 10 12 24 44 29 71 5 27 5 36 0 36-2 0-2-1-1-2z m-178-12c0-17 8-49 18-70 18-38 46-49 64-25 12 15-1 35-33 53-24 13-38 25-44 42l-5 13z m302 5c-3-6-12-36-15-47-1-5-1-18-1-29 0-26 8-44 22-51 11-5 14-6 23-1 8 3 14 14 14 25 0 9-9 27-23 44-12 16-19 37-17 52 2 12 1 14-3 7z m195-6c-4-6-23-18-36-21-5-1-18-2-28-2-39-1-61-23-48-46 15-24 56-11 87 28 15 19 31 43 29 45-1 1-3-1-4-4z m-228-66c-5-9-13-38-15-52-3-19 0-48 6-59 6-10 20-20 28-20 4 0 10 3 15 9 14 14 12 31-8 56-17 22-22 34-22 53-1 10-1 18-1 18 0 0-2-3-3-5z m-92-10c-5-15-17-29-42-42-21-12-37-26-40-37-3-16 15-34 30-31 26 6 46 40 55 95 5 24 2 35-3 15z m-176-7c3-53 31-101 59-102 16-1 30 15 26 30-3 10-19 26-34 34-20 9-39 25-43 35-10 22-10 22-8 3z m459 10c-11-12-26-17-56-19-32-3-45-8-53-22-6-11-2-24 10-31 24-17 63 7 96 59 12 18 13 24 3 13z m-226-68c-8-15-15-47-15-70 0-19 1-25 5-35 10-20 25-27 40-20 8 3 15 15 15 24 0 8-11 29-21 40-13 16-19 30-19 50 0 10 0 19 0 19-1 0-3-3-5-8z m197 1c-10-14-29-21-59-24-32-2-46-8-53-20-6-10-6-15 1-25 6-11 21-16 37-11 22 6 58 43 74 75 7 14 7 15 0 5z m-254-5c1-2 1-8 0-13-4-13-23-31-46-43-30-16-44-37-32-52 11-16 29-17 45-3 17 15 29 43 36 83 4 21 4 23 0 27-2 2-4 2-3 1z m-176-19c2-36 19-78 37-92 5-4 14-8 20-9 10-2 11-1 20 7 8 9 9 11 8 19-2 14-14 26-36 38-25 13-39 27-45 44l-6 12z m390-54c-11-11-28-17-58-19-25-1-35-5-45-16-10-12-9-22 2-33 7-7 11-8 19-8 22 0 51 20 73 52 11 15 21 32 19 33 0 0-5-4-10-9z m-320-57c-1-1-1-3-1-5 1-2 3-18 5-35 2-18 5-35 7-37 4-5 11-5 17 0 5 5 7 19 9 68l0 9-18 1c-10 0-18-1-19-1z m176-7c-25-67-25-67-21-73 6-9 18-8 22 1 2 4 10 18 19 32 14 25 16 30 12 30-2 0-19 7-29 12-1 1-3 0-3-2z"/>
<glyph glyph-name="car" unicode="&#110;" d="M160 411c-26-5-40-12-52-26-14-15-34-55-41-82l-6-21-8 10c-13 19-34 26-47 16-5-3-6-6-6-22 0-24 2-26 28-26 11-1 21-1 23-1 2 0 0-4-6-10-13-15-21-30-27-52-5-21-5-32 1-88 4-27 15-53 24-57 3 0 5-3 5-8 0-27 1-29 7-35 6-6 8-7 30-6 21 1 24 1 28 7 2 4 5 12 5 19l1 12 31-2c39-2 170-2 210 0l31 1 1-14c2-21 7-24 36-23 22 1 24 1 28 7 4 5 5 12 5 24 1 15 1 17 6 20 15 6 25 43 28 105 2 33-9 65-28 87-6 6-9 11-7 12 2 1 12 2 23 2 17 0 20 0 24 6 6 7 7 32 2 40-2 2-8 5-14 6-14 1-28-6-38-19l-7-12-5 15c-13 48-37 91-57 102-22 13-50 16-134 16-49 0-82-1-94-3z m173-33c20-3 34-6 44-10 9-3 26-35 36-68 9-30 10-29-7-28-63 7-234 7-301 0l-16-1 2 9c8 35 31 84 42 88 3 2 19 5 35 8 23 4 39 5 91 4 34 0 67-1 74-2z m-214-167c14-9 18-31 10-47-8-17-37-22-53-9-21 15-15 53 10 60 11 3 25 1 33-4z m310 1c12-7 17-16 17-30 0-19-11-32-29-34-13-2-24 2-33 12-14 17-9 44 10 53 12 6 25 6 35-1z m-92-69c6-5 4-13-7-25-7-8-11-10-18-10-64-2-121 0-124 2-8 5-19 21-19 27 1 3 4 6 8 7 11 3 157 2 160-1z"/>
<glyph glyph-name="cow" unicode="&#111;" d="M215 509c-48-8-103-37-140-74-31-31-56-75-68-119-5-24-8-74-4-97 6-38 27-90 43-105 21-20 51-16 74 10 15 18 21 37 17 63-6 49-3 84 7 91 7 4 8 0 3-21-4-20-4-21 1-33 9-20 14-14 12 16-2 16-1 22 2 29 3 4 5 7 6 8 1 0 5 0 8 1 7 0 19-9 19-16 0-6 20-33 28-38 7-4 11-4 29-3 32 4 45 3 64-3 20-7 27-6 33 5 6 9 4 17-4 30-10 15-17 29-18 39-1 5-6 13-12 20-10 10-11 13-11 22 0 11 1 14 7 19 3 4 7 5 12 5 10-2 14 2 19 17 3 10 3 15 1 21-4 10-1 10 8 1 6-6 7-10 7-19 0-13-4-23-12-31-7-6-7-7 2-20 11-16 22-41 25-52 1-7 4-11 9-14 14-7 20-15 20-25 0-12-3-14-21-12-10 1-12 1-14-5-2-3-7-7-12-9-18-6-21-29-4-37 6-4 25-4 30 0 2 1 8 2 15 2 9 1 13 0 18-5 6-4 6-6 4-9-4-4-27-5-40-2-8 2-13 2-22-3-18-7-28-8-42-1-14 7-22 8-24 2-2-6 2-9 15-10 7 0 13-1 14-2 2-1-10-7-15-7-1 0-4-1-7-2-2-1-13-6-23-12-17-8-24-13-51-41-24-25-32-32-37-32-4 0-8 2-9 5-3 6-3 5 7 49 9 33 9 32-1 88-3 20-5 37-5 38 1 1 3 2 5 2 5 0 5 6 0 15-7 15-16 7-15-13 0-5 2-19 3-31 4-27 6-48 6-52 0-18-2-40-3-41-3-1-9 9-11 19-1 4-4 9-6 11-5 4-7-6-2-17 5-12 6-46 1-62-5-19 7-36 25-36 17 0 30 11 57 50 8 12 17 24 19 26 9 12 28 20 65 27 11 2 24 7 31 11 10 6 13 6 30 5 16-1 21 0 29 4 12 5 21 16 28 34 6 11 6 12 1 25-3 11-8 18-32 41-15 15-28 29-28 31 0 2 2 6 5 9 3 5 3 6-1 11-2 2-7 5-10 6-3 0-9 6-13 13l-7 12 6 14c7 17 9 33 5 45-4 12-17 24-30 26-6 1-11 1-11 1 0-1 2-5 4-10 5-10 6-29 2-34-5-6-88-3-100 3-13 6-22 20-21 32 1 11-2 12-15 4-16-10-21-29-14-50 5-16 5-17-7-15-7 1-20 4-31 7-22 5-29 5-32 2 0-1 4-12 11-23 6-11 11-22 10-24-2-7-20-13-40-13-26 0-33 3-33 17 0 21 23 61 51 89 33 33 78 56 118 61 106 13 196-38 235-131 42-105 7-224-84-286-25-17-56-30-79-34-5-1-10-3-11-4-2 0-17-1-33-2-17 0-31-2-31-3 0-3 59-4 76 0 98 19 177 92 204 188 8 29 8 98 0 127-27 97-105 171-203 190-13 3-73 4-87 1z m-13-109c0-10 4-17 14-29 8-9 8-9 2-10-4 0-9 2-12 5-8 8-8 4 0-7 7-9 9-16 3-16-4 0-15 12-19 20-4 8-4 32 1 38 5 8 10 8 11-1z"/>
<glyph glyph-name="engineering" unicode="&#112;" d="M228 482c-3-3-3-8 1-32 4-28 4-33-2-33-5 0-6 3-9 27-2 11-4 22-6 23-3 3-18-7-30-21-13-14-20-30-24-50-2-11-3-15-7-15-5 0-13-9-13-15 0-3 3-7 5-10 5-5 9-5 113-5 104 0 108 0 113 5 2 3 5 7 5 10 0 6-8 15-13 15-4 0-5 4-7 15-4 20-11 36-24 50-12 14-27 24-30 21-2-1-4-12-6-23-3-24-4-27-9-27-6 0-6 5-2 33 6 37 6 36-27 36-20 0-26 0-28-4z m-69-151c0-14 8-40 17-59 11-22 31-43 48-52 18-9 46-9 64 0 27 13 52 49 61 87 6 25 6 31-2 31-5 0-7-2-8-7-7-37-16-57-34-76-14-15-27-22-45-24-37-4-73 34-85 88-3 17-5 19-10 19-5 0-6-1-6-7z m-13-109c-45-15-76-51-86-99-10-47 6-80 42-92 13-4 28-4 154-4 126 0 141 0 154 4 36 12 52 45 42 92-10 49-45 87-91 101-19 5-28 5-28-1 0-6-17-36-39-69l-19-29-2 23-2 24 8 8c4 6 8 12 8 15 0 4-1 5-7 3-9-3-39-3-48 0-6 2-7 1-7-3 0-3 4-9 8-15l8-8-2-24-2-23-19 28c-21 33-39 64-39 70 0 7-12 6-33-1z"/>
<glyph glyph-name="fire" unicode="&#113;" d="M224 498c-30-23-54-59-60-93-5-24-2-79 5-102 8-24 9-47 4-63-7-22-9-23-9-3 0 39-10 63-37 87-13 12-25 18-25 13 0-1 2-13 3-26 2-17 2-30 0-43-3-20-11-41-19-48-6-5-24-39-29-55-5-18-7-57-3-61 1-1 2-4 2-7 0-7 12-29 23-41 14-16 37-31 66-43 40-18 82-17 46 0-7 4-15 10-21 17-7 10-7 13-7 31 0 16 1 22 6 34 9 19 15 41 15 57 0 13 3 15 10 5 7-9 12-23 10-30-1-4-1-7 1-8 8-5 36 31 45 58 7 22 8 34 2 47l-4 9 6-4c6-4 14-14 19-26 6-15 7-31 2-52-6-30-5-43 4-57 4-7 9-12 12-12 4 0 4 3 1 16-4 12-1 26 6 38l5 9 2-16c2-17 3-20 16-41 16-25 14-49-5-67-6-6-11-12-11-13 0-3 11-4 13-1 1 0 10 5 20 9 35 15 65 42 79 72 8 15 8 17 8 51l0 35-12 30c-19 47-24 64-28 85-5 28-5 55 2 74 3 9 5 16 4 17-1 1-9-3-17-8-34-18-58-51-61-80l-1-16-7 6c-12 12-39 50-49 71-14 30-19 53-17 87 1 28 5 43 14 62l6 10-9 0c-6 0-13-4-26-14z"/>
<glyph glyph-name="marine" unicode="&#114;" d="M215 499l0-7-16 0c-14 0-17-2-22-6-7-8-7-20-1-28 4-5 8-6 22-7l17-1 0-9-1-10-26 0c-21-1-27-2-30-6-4-4-8-17-24-65-5-17-11-37-14-45-3-8-4-14-4-15 1-1 6 2 12 6 6 3 11 6 12 6 1 0 7 3 15 7 7 4 25 11 41 16 25 8 31 9 57 9 27 0 32-1 57-8 15-5 28-10 29-11 2-1 10-5 19-9 10-4 19-9 22-11 7-6 7-2 1 15-3 9-5 18-5 20 0 3-4 16-9 31-5 15-9 29-9 31 0 7-7 24-11 26-1 1-14 2-28 2l-25 0 0 10c0 11 0 11 10 11 20 0 26 2 30 11 3 7 3 11 1 16-3 11-9 14-26 14-13 0-14 0-16 7l-3 8-75 0z m-23-174c-16-5-39-15-51-21-22-11-26-13-56-32l-16-10 0-15c0-9 1-17 2-17 1 0 2-14 3-32 1-47 7-58 39-73 11-6 21-13 34-26 9-10 17-18 16-19-1-1 1-7 5-13 3-7 7-15 8-19 5-13 28-11 46 3 5 3 12 13 16 21 8 14 9 15 16 15 7-1 9-3 15-13 14-26 25-34 46-33l14 1 8 21c5 11 10 21 11 21 1 1 4 5 6 8 5 10 22 24 34 29 24 11 38 24 41 39 8 43 8 66 2 70-4 3-4 3 1 2 6-2 6-1 6 14l0 16-15 10c-42 26-68 39-107 53-21 8-25 9-59 10l-36 0z m51-268c-12-20-26-29-46-31-12-1-17 0-27 5-7 4-16 10-20 15l-7 7-14-14c-16-16-22-19-41-19-13 0-34 7-34 10 0 2-3 4-7 6-6 2-8 2-16-6-5-5-13-10-18-12-8-3-11-8-5-8 6 0 24 6 28 10 4 3 6 2 18-6 15-10 37-15 51-13 5 1 16 5 24 9l14 8 13-9c12-7 16-8 36-8 25-2 38 2 54 16 6 5 8 6 10 4 2-4 8-8 24-16 21-10 60-6 78 8 5 4 16 4 16 0 0-1 6-5 15-8 20-8 40-6 62 5 8 5 17 11 18 14 3 4 4 4 11-2 6-5 25-12 30-12 5 0 1 6-7 9-8 4-27 21-27 25 0 4-6 2-16-7-13-12-24-17-39-17-12 0-34 8-34 13 0 1-3 3-6 4-3 2-5 3-5 5 0 1-9 12-11 12 0 0-6-5-12-11-28-27-68-21-87 13-5 9-10 16-11 16-2 0-7-7-12-15z"/>
<glyph glyph-name="miscellaneous" unicode="&#115;" d="M5 504c-5-5-5-8-5-250 0-163 1-246 3-249 2-5 8-5 253-5 245 0 251 0 253 5 2 3 3 39 3 99 0 88 0 95-5 100-3 3-4 7-3 15 1 9-3 17-43 86-42 72-52 87-61 87-2 0-3 1-3 4 0 2-3 7-7 11-8 7-150 91-161 94-3 1-8 0-11-1-3-2-6-2-10 3l-6 6-96 0c-92 0-96 0-101-5z m164-251l0-212-125 0 0 425 125 0z m122 162c25-15 47-28 48-29 1-1-26-50-60-109l-63-108 0 125-1 124 9 15c9 14 10 15 15 12 3-2 26-16 52-30z m128-129c16-28 30-53 30-54 0-2-214-127-216-126 0 1 27 49 61 107 62 105 62 106 76 115 9 6 16 10 17 10 1 0 15-23 32-52z m49-182l0-63-254 0 69 40c38 22 86 50 107 63l39 22 20 0 19 0z m-380 39c-28-14-34-47-11-69 22-22 55-17 69 11 6 14 7 25 0 37-6 12-12 18-24 23-12 5-21 5-34-2z m33-24c7-7 6-25-1-30-8-6-21-6-27 1-8 7-8 21-1 28 7 6 22 7 29 1z"/>
<glyph glyph-name="plane" unicode="&#116;" d="M244 446c-5-3-8-15-8-31 0-25-1-26-19-26-16 0-25-5-25-15 0-10 9-16 25-16 15 0 15 0 14-6-1-5-5-8-12-12-16-8-35-30-47-53l-10-19-73-12c-40-7-75-13-78-15-8-4-11-11-11-23 0-8 2-11 8-17 7-5 10-6 25-6 17 0 18 0 19-8 3-13 11-22 24-27 9-4 13-4 21-2 15 5 28 22 26 35 0 1 7 2 16 2 20 0 20 0 19-35l0-23-8-5c-7-5-8-7-9-19-1-20 3-23 28-23 19 0 21 1 25 6 2 4 3 10 3 18-1 6-1 11-1 11 11-6 28-13 38-15l14-3-5-9c-12-22-1-43 19-38 12 3 15 22 7 38l-5 9 14 3c10 2 27 9 38 15 0 0 0-5-1-11 0-8 1-14 3-18 4-5 6-6 25-6 25 0 29 3 28 23-1 12-2 14-9 19l-8 5 0 23c-1 35-1 35 19 35 9 0 16-1 16-2-2-13 11-30 26-35 19-5 41 8 45 29 1 8 2 8 19 8 15 0 18 1 25 6 6 6 8 9 8 17 0 12-3 19-11 23-3 2-38 8-78 15l-73 12-10 19c-12 23-31 45-47 53-7 4-11 7-12 12-1 6-1 6 14 6 16 0 25 6 25 16 0 10-9 15-26 15-8 0-15 0-15 1 0 0-1 11-2 24-3 28-6 34-21 34-5 0-10-1-12-2z m-17-153c22-4 36-5 58 0 10 2 19 3 22 2 5-3 14-31 12-38-4-18-120-18-126-1-3 9 9 41 15 41 1 0 9-2 19-4z"/>
<glyph glyph-name="property" unicode="&#117;" d="M324 457c-8-5-84-50-99-58-12-7-13-8-21-3-4 2-11 6-14 9-4 3-8 5-10 5-4 0-28-13-54-30-7-5-14-9-15-9 0 0-8-4-16-9-8-6-21-13-28-18-8-4-19-11-26-15-7-4-19-12-27-16l-14-9 0-29c0-16 1-30 3-31 1 0 5 1 10 3 4 2 8 4 9 4 1 0 1-31 1-68l0-68 189 0 0 46c0 25 1 48 2 51 2 6 2 6 42 6 40 0 40 0 42-6 1-3 2-26 2-51l0-46 93 0c82 0 93 1 94 4 1 3 2 45 2 95l0 90 9-5c5-3 10-4 11-3 2 1 3 13 3 31l0 30-18 10c-10 6-24 14-31 18-7 5-15 10-19 12-4 2-30 18-57 34-27 16-51 30-54 30-2 0-6-2-9-4z m40-78c6-4 20-12 30-18 23-13 44-26 70-42l7-4 0-146-15 0-1 46c0 56 0 51-5 55-4 3-14 4-39 4-48 0-45 4-45-57l0-48-31 0 0 41c0 23 1 41 2 40 1 0 5-2 9-4 6-3 8-3 11 0 4 4 5 44 2 53-2 5-12 12-32 24-15 9-35 20-43 25l-15 10 32 19 33 20 9-6c5-3 14-8 21-12z m-112-35c95-56 88-51 88-63l0-9-26 15c-14 9-32 19-39 24-13 7-21 12-66 39-14 9-28 16-31 16-2 0-8-3-14-6-5-3-24-15-43-26-19-11-40-24-47-29-8-4-16-9-18-10-2-1-11-6-20-12-9-5-18-10-19-11-1 0-2 4-2 9 0 10 1 11 11 16 16 9 16 10 87 52 57 35 65 39 70 37 3-2 34-21 69-42z m-63-92c5-2 6-3 6-43 0-38 0-41 5-45 5-4 5-5 1-9-4-3-12-4-73-4-38 0-70 1-73 2-5 2-5 11 0 12 3 2 4 9 4 44 0 37 0 42 4 43 7 1 120 1 126 0z m246-57l0-59-48 0 0 117 48 0z m-359 42c-1-1-2-8-2-15l0-12 47 0-1 13-1 14-20 1c-12 0-22 0-23-1z m60 1c-1-1-1-7-1-15l-1-13 45 0 0 13-1 14-21 1c-12 0-21 0-21 0z m-62-58l0-14 23 1 22 1 0 25-22 1-23 1z m61 13c0-2-1-7-1-14l0-11 23-1 22-1 0 29-21 0c-12 0-22-1-23-2z m93-59l1-69 28 0 27-1 0 138-56 0z m-205-49c0-8 1-16 3-18 2-2 27-3 95-3l91 0 0 36-189 0z m277-3l0-18 15 0c18 0 20 3 20 23l0 13-35 0z"/>
<glyph glyph-name="aboutus" unicode="&#118;" d="M239 437c-10-5-17-12-21-22-4-7-4-8-3-18 0-9 0-10 3-15 2-3 3-5 3-6-1 0 2-3 5-5 3-3 5-5 4-5-1 0 3-3 5-3 0 0 3-1 6-2 4-2 7-3 15-3 10 0 12 0 18 4 8 4 14 10 18 18l5 7 0 12c0 7 0 13-1 13-1 1-3 7-3 9 0 1-14 15-14 14 0-1-3 0-6 2-5 3-7 3-16 3-10 1-10 1-18-3z m-157-36c-2 0-6-2-9-3-2-1-5-2-5-1 0 0-1 0-2-1 0-1 0-1 1 0 1 0 1 0 1-1-1 0-2-1-2 0-1 1-11-9-11-11 1 0 0-1 0-1-1-1-1-1 0 0 0 1 0 1-1 1 0-1-1-1 0-2 0 0-1-3-2-5-3-8-4-16-3-22 1-6 2-9 2-11 0 0 1-1 1-2 2-2 5-7 7-10 1-2 2-3 2-3 1 1 8-4 8-5-1-1 3-2 4-2 1 0 11-2 13-3 1-1 5 0 10 1 4 1 9 1 10 2 5 0 15 9 21 17 1 2 2 5 3 7 0 2 1 6 1 10 2 5 1 7 0 13-1 4-2 8-2 9-1 1-2 3-3 5-2 1-4 4-5 6-1 2-3 4-3 4-2 0-7 3-9 5 0 1-2 1-4 2-1 0-5 1-8 1-7 1-9 1-15 0z m325-1c-9-4-21-16-25-24-1-4-2-24-1-25 1-2 4-9 4-10 0-1 2-4 4-6 3-3 4-5 4-6 0-1 17-9 18-9 1 0 4 0 8-1 6-1 8-1 14 2 14 4 22 11 27 23 1 3 3 6 3 7 1 2 1 5 0 9 0 7-1 12-1 16 0 1 0 1-1 1 0-1-1 1-3 3-1 3-2 5-2 5 1 0-1 3-3 3 0 0-3 3-5 5-3 3-5 5-6 5-3 0-10 2-10 3 0 2-21 1-25-1z m-159-52c-4 0-7-1-9 0-2 0-14-3-24-8-3-1-6-2-5-2 1 2-6-2-14-9-4-3-10-9-14-13-6-8-10-15-8-14 0 1-1-3-3-7-1-5-3-9-3-10 0-1 0-2-1-2 0-1-1-2-1-3 0-1 0-3-1-3-1-1-4 2-8 7-2 2-4 4-4 4-1 0-4 2-6 5-3 2-6 4-6 4-1-1-9 3-8 4 0 1-3 2-7 3-1 0-4 1-7 2-2 1-7 2-10 2-3 0-6 1-7 1-3 2-26 0-35-2-5-1-10-2-11-2-6-1-24-13-33-23-10-9-19-23-19-29-1-2-2-6-2-10-2-5-2-12-2-32 0-29 1-34 5-40 2-3 4-5 5-6 0-1 2-3 3-3 4-3 8-6 8-6-1 0 0 0 1-1 1-1 3-1 3-1 1 0 4 0 7-1 4-1 18-1 61-1 30 0 55 0 55 0 1 1 2 13 1 14-1 0-1 1 0 1 0 2-13 2-60 2-26-1-48 0-50 0-3 1-6 1-7 2-3 0-13 9-13 12-1 2-1 4-2 6 0 3 0 33 0 43 1 4 1 9 2 11 1 5 2 6 10 17 4 7 16 18 22 22 3 1 5 3 6 4 2 2 16 5 18 5 0-1 3 0 6 0 7 2 31 0 32-2 0 0 2-1 4-1 5-1 11-4 11-5-1-1 1-1 5-2 2-1 7-5 7-6-1 0-1-1 0-1 1 0 10-8 10-9-1 0 1-2 3-4 3-3 5-9 5-13 0 0 0-1 1 0 1 0 3-6 3-12 0-2 0-5 1-5 0-1 1-3 1-5l1-4 4 7c3 4 7 9 8 11 3 4 3 4 4 16 0 6 0 14 1 16 1 3 1 6 1 6-1 1 3 13 7 19 2 3 7 9 12 13 7 7 10 10 17 13 5 2 10 4 12 5 2 0 6 1 9 1 4 2 9 2 19 2 8-1 15-1 15-2 1 0 4-1 6-1 4-1 9-2 9-4 1 0 3-1 5-2 2 0 6-2 8-4 2-2 4-4 4-3 0 0 2-1 4-3 2-2 3-4 3-4-1 0 0-1 1-2 1-1 2-1 2-1 1 0 6-7 6-8 0-2 1-5 2-4 1 0 5-9 4-9-1-1 0-3 1-5 1-3 2-7 2-10 0-17 1-27 2-27 1 0 6-7 6-8-1 0 0-1 2-3 4-3 6-8 5-9 0-1 0-1 1-1 1 0 2 2 2 8 0 4 0 8 1 10 2 4 4 9 3 10 0 1 1 4 3 7 5 9 18 23 28 28 4 2 7 3 7 2-1-1 7 2 11 4 3 2 32 2 33 1 0 0 2-1 4-1 5 0 12-2 12-3 0-1 4-2 5-2 2 0 9-4 9-5-1 0 1-1 2-2 4-1 9-6 9-7-1 0 3-4 4-4 0 1 5-6 5-7-1 0 0-2 2-3 2-3 4-7 5-12 0-2 1-4 1-4 1-1 2-7 2-25 0-21 0-26-2-29 0-2-1-5-1-6 0-1-1-2-2-3-1-1-1-1 0 1 1 1 1 2 0 0-1 0-2-2-1-3 0-1 0-1-1-1-1 1-2 0-3-1-1-1-1-1 1 0 1 2 1 2 0 0-1-1-2-2-2-1 0 0-3-1-5-1-2-1-4-2-5-3-2 0-24-1-49 0-51 0-62 0-62-2 0-1 0-4 0-8l-1-7 60 0 61 0 7 4c8 5 15 11 19 19l3 6 0 31c0 20 0 32-1 33-1 1-2 4-3 8-1 4-2 8-3 8-1 1-5 8-4 8 0 1-2 3-4 5-2 3-5 6-5 7-1 1-2 3-3 3-2 1-4 3-6 6-2 2-5 4-5 4-1-1-5 2-9 5-1 1-3 2-4 2-1 0-4 1-7 3-3 1-8 2-10 3-3 0-6 1-7 1-2 1-24 2-30 1-2 0-7-1-11-1-4-1-8-2-18-6-6-3-13-7-15-8-1-2-3-3-4-2 0 0-2-1-3-3l-2-2 6 5-3-3c-1-2-3-3-3-2-1 0-6-5-6-6 0 0-1-2-3-4l-3-4 0 4c0 2 0 4-1 5-1 1-2 6-3 11 0 1 0 3-1 3-1 1-5 9-5 10 0 2-1 4-2 4-1-1-5 4-5 6-1 2-3 5-4 4-1 0-7 6-6 7 0 1-2 2-4 3-3 1-6 4-8 5-2 2-4 3-4 3-2 0-10 4-9 4 0 1-2 1-9 3-3 0-5 1-6 1-1 1-5 1-8 2-3 0-8 0-11 0-4 1-9 1-12 0z m-7-93c-1 0-6-2-9-3-4-1-9-2-10-2-6-1-19-10-30-21-11-10-22-25-22-31-1-1-2-6-3-11-3-8-3-12-3-22-1-7 0-13 0-14 1-1 1-4 1-7 1-3 2-7 3-9 1-3 2-6 2-7 1-3 3-8 3-6 0 0 1-1 3-4 1-2 2-4 2-5 0 0 2-3 4-5 3-3 5-5 5-6-1 0 0-2 2-3 5-3 8-6 8-7-1 0 2-2 6-4 3-2 6-4 5-4 0-1 3-2 4-2 0 0 3-1 7-3 3-2 7-3 8-3 5-1 10-2 10-3 1-1 24-2 30-1 3 1 8 1 10 2 9 0 29 11 39 20 3 2 6 4 6 4 1-1 1-1 1 0-1 1 1 3 3 6 6 7 10 12 15 23 3 7 5 13 6 16 0 2 0 7 1 10 1 7 0 29-1 30-1 1-3 9-3 10 1 0-1 3-3 7-2 3-3 7-3 7 1 1 0 2-1 3-4 4-7 9-6 9 0 1-2 3-4 5-3 2-5 4-6 6 0 1-2 3-4 4-2 0-5 3-7 5-2 2-3 3-4 3 0-1-8 3-8 4 0 1-3 2-6 3-2 0-5 1-7 2-3 1-7 2-10 3-4 0-7 1-7 1-2 1-23 1-27 0z m29-18c3-1 7-2 9-3 2-1 4-2 5-2 1 1 9-3 9-4-1 0 1-2 4-2 1 0 8-5 8-6 0-1 3-4 3-3 0 0 2-1 4-3 1-2 3-3 3-4-1 0 0-2 2-3 2-3 6-8 5-9 0-1 1-3 3-5 1-2 2-5 3-7 0-3 1-6 2-8 2-6 1-28-1-33-4-9-6-13-5-12 2 1-3-8-8-14-4-6-12-14-19-18-7-5-10-6-10-5 1 1-3 0-12-5-4-1-29-2-32-1-1 1-3 1-5 2-5 0-12 2-11 3 0 1-3 2-5 3-2 0-8 3-8 4 0 1-1 2-3 2-4 2-16 15-18 19 0 2-2 4-2 4-1 0-2 2-3 3-1 3-1 5-2 9 0 1 0 2-1 2-1-1-4 9-3 10 1 0 0 3 0 6-1 4-1 8-1 11 1 2 1 6 1 9 1 7 5 18 8 22 1 1 3 4 5 6 4 7 11 13 19 19 11 9 18 12 29 13 3 0 6 0 6 1 1 0 10 0 21-1z m-9-38c-2-1-6-3-7-5-5-4-3-9 2-5 2 2 2 2 2 1-1-1-1-3-2-5 0-3-4-14-9-24-2-4-3-8-3-9 0-2-6-18-7-20-4-4-7-17-5-23 0-4 6-4 15 1 3 1 7 6 7 7 0 2-4 3-5 2 0-1 0-1 1 0 1 0 1 0 0-2-1-1-2-2-3-2 0 0 1 6 3 8 0 2 1 3 0 3 0 1 3 12 8 22 2 5 4 9 4 9-1 1 3 13 8 22 4 9 5 17 2 20-3 3-5 3-11 0z"/>
<glyph glyph-name="account" unicode="&#119;" d="M75 495c-18-3-36-19-43-36l-3-9-1-189c0-140 0-191 1-197 4-18 18-35 35-43l9-4 256-1-14 15c-8 8-15 16-16 16-2 1-51 1-110 1-72 0-109 1-112 2-6 2-13 9-15 15-2 4-2 36-2 191 0 129 0 189 2 192 2 6 7 11 14 14 6 3 13 3 142 3 135 0 136 0 142-3 5-3 8-6 11-11l4-7 1-113 0-114 31 0 0 115c0 112-1 115-4 124-5 16-14 27-28 34-14 7-14 7-157 7-75-1-139-1-143-2z m16-133c-1-1-1-4 0-7l0-6 64-1c57 0 65 0 67 2 3 3 3 10 0 13-3 3-130 2-131-1z m1-30c-1 0-1-4 0-8l0-7 66 1 65 0 1 7 0 8-66 0c-36 0-66-1-66-1z m-2-123l0-80 96 0 97 1 2 6c2 5 2 18 3 72l1 66 20 1 20 0 0-38 1-38 7 4 7 5 0 82-254 0z m126 0l0-64-55-1-54 0 0 131 54 0 55-1z m56 0l0-64-19-1-20 0 0 131 20 0 19-1z m96-11c-15-4-29-12-42-25-24-23-33-55-24-87 7-31 31-55 61-65 15-5 43-5 57 0 21 7 38 20 49 38 11 17 14 28 14 51 0 20-3 30-13 47-11 19-35 36-56 41-12 3-34 3-46 0z m34-25l0-6 12-2c7-2 13-3 14-4 2-2-3-20-4-20-1 0-5 1-10 3-12 3-28 2-33-3-3-4-4-5-2-9 1-3 4-5 21-13 12-4 23-10 26-12 9-7 12-22 7-34-4-7-14-15-23-18-8-3-8-3-8-10l-1-7-20 0 0 6c0 6-1 6-9 7-21 5-23 5-24 7-1 1 4 19 5 19 1 0 5-1 9-2 10-3 32-3 38-1 6 3 7 13 2 18-1 1-9 4-16 7-23 9-30 13-35 23-3 5-3 16 0 23 2 6 11 13 22 18 8 3 8 3 8 9l0 7 21 0z m-250-80c0-1-1-4-1-8l0-6 132 0 0 15-65 0c-36 0-65-1-66-1z"/>
<glyph glyph-name="claim" unicode="&#120;" d="M134 509c-2-2-23-22-46-46-36-36-43-43-43-46-1-2-1-74-1-160l1-156 2-5c4-12 13-20 26-25l6-3 99 0 99 0 2-6c2-8 10-20 17-29 11-13 30-25 49-30 7-2 10-3 25-3 21 0 27 2 44 10 62 31 73 117 20 162-12 10-31 19-44 21l-4 1 0 142c0 129-1 142-2 146-5 14-15 24-28 28-5 2-10 2-111 2l-107 0z m216-31c2-1 4-4 4-7 1-2 1-60 1-140 0-128 0-137-2-137-7 0-28-8-38-15-23-16-39-42-42-70l-1-10-94 0c-104 0-97 0-101 7-2 2-2 8-2 147l0 144 37 0c37 0 38 1 41 3 1 1 3 3 5 5 1 3 2 6 2 40l0 36 187 0z m-222-35l0-15-30 0 15 15c8 8 15 15 15 15 0 0 0-7 0-15z m258-281c30-6 53-37 51-69-1-17-8-30-20-43-14-13-29-19-47-19-18 0-33 6-47 19-14 14-19 28-19 47 0 9 0 13 2 19 11 35 44 54 80 46z m-272 201c-6-3-10-9-10-15 0-4 4-11 8-13l4-2 99 0c92 0 99 0 102 2 11 5 11 21 0 27-3 2-8 2-102 2-80 0-99 0-101-1z m0-58c-6-3-10-9-10-15 0-4 4-11 8-13l4-2 99 0c92 0 99 0 102 2 11 5 11 21 0 27-3 2-8 2-102 2-80 0-99 0-101-1z m2-60c-1 0-4-1-6-3-8-6-8-19 1-25l3-2 100 0c99 0 101 0 104 2 9 6 10 20 0 26l-3 2-98 1c-54 0-100-1-101-1z m-2-60c-9-4-12-15-7-24 4-6 4-6 51-6 43 0 43 0 46 2 5 4 7 7 7 13 0 5-2 10-6 13l-3 2-43 1c-34 0-43 0-45-1z m248-36c-2-1-4-3-5-5-2-3-2-5-2-28 0-23 0-24 2-27 4-5 8-7 14-7 6 1 10 3 13 8 1 3 2 5 2 26 0 22-1 24-3 27-4 8-14 10-21 6z m1-78c-6-3-7-6-8-12 0-8 2-12 8-15 6-2 8-3 14 0 9 4 11 17 4 25-3 3-5 3-10 4-4 0-6 0-8-2z"/>
<glyph glyph-name="dashboard" unicode="&#121;" d="M55 474c-26-7-46-28-53-54-2-8-2-13-2-164 0-153 0-156 2-164 7-26 27-47 54-54 7-1 12-1 203-1l195 0 8 3c11 4 19 9 29 19 10 9 16 20 19 32 2 8 2 11 2 165 0 172 0 162-6 176-8 19-24 33-44 40l-8 3-196 0c-189 0-196 0-203-1z m396-26c15-4 28-16 33-31 2-6 2-7 2-161 0-149 0-154-2-160-5-16-17-27-33-32-5-1-23-1-194-1-207 0-195-1-206 5-7 4-16 13-19 19-6 11-6 3-6 169 0 132 0 153 2 158 4 17 17 30 33 34 8 2 382 2 390 0z m-258-80l-2-2 0-38c0-37 0-39 2-41 2-1 6-1 40-1 35 0 39 0 41 1 1 2 1 3 1 11-1 13-3 20-9 31-7 16-22 29-39 35-13 5-30 7-34 4z m215-16c-1 0-3-3-5-4l-2-4 0-79c0-72 0-80 2-83 2-6 4-6 15-6 8 0 9 0 12 2 5 4 5 2 5 86 0 78 0 78-2 82-2 3-3 5-6 6-4 2-16 2-19 0z m-258-7c-34-5-61-32-67-67-8-42 17-84 59-99 8-3 9-3 24-3 18 0 23 1 39 9 26 12 43 37 46 65 0 5 0 7-1 9l-2 2-39 1c-36 0-39 0-41 2-2 2-2 3-2 39 0 34 0 38-2 39-2 3-6 4-14 3z m168-80c-4-2-7-6-8-10-1-1-1-17-1-35 0-30 0-33 2-37 3-6 5-7 16-7 9 0 9 0 12 2 5 5 5 9 5 42 0 34 0 38-5 42-3 3-4 3-11 3-5 0-9 0-10 0z"/>
<glyph glyph-name="email" unicode="&#122;" d="M47 430c-21-3-38-18-44-38l-2-5 0-261 2-6c4-14 14-25 27-32 12-6-10-6 226-6 236 0 214 0 226 6 13 7 23 18 27 32l2 6 0 261-2 5c-5 18-19 31-37 36l-6 2-207 0c-114 0-209 0-212 0z m414-21c8-2 18-8 17-10 0 0-40-37-88-82-49-45-93-86-100-92-6-6-13-12-15-13-4-3-10-5-16-6-9-1-21 2-29 9-4 4-45 42-147 135-30 27-54 49-54 50 0 1 6 5 11 7 2 1 6 2 8 3 2 0 5 1 6 1 0 0 91 0 202 0 192 0 201 0 205-2z m-400-58c21-20 45-43 53-50 7-7 24-23 38-35l24-22-32-25c-96-77-123-98-123-98-1 0-2 2-2 4-2 4-2 9-2 129 0 118 0 125 2 129 0 2 1 4 2 4 0 0 18-16 40-36z m429 31l2-5 0-124c0-82 0-124-1-125-1-1-3 1-20 13-110 84-136 103-136 104 0 0 13 13 30 28 96 90 122 114 123 114 0 0 1-2 2-5z m-86-208l80-60-4-4c-5-4-12-8-19-10-5-1-14-1-207-1-191 0-203 0-207 1-5 1-14 5-16 8-2 1-2 1-1 2 1 1 37 29 79 63l78 60 2-1c1-1 9-8 18-16 17-16 19-17 26-21 7-3 14-4 22-4 9 0 15 1 23 5 7 3 9 5 29 23 9 8 16 15 16 15 1 0 37-27 81-60z"/>
<glyph glyph-name="extra" unicode="&#65;" d="M132 510c-6-3-11-8-14-15l-3-6 0-122 0-123 2 1c1 0 9 0 16 0l13 0 0 5c0 3 0 56 0 117 0 62 1 112 1 113 1 1 196 1 200 0l4-1 0-41c0-23 0-43 0-45 1-2 1-4 1-5 1-2 2-4 3-5 1-1 3-4 5-6 2-3 4-5 4-5 2 0 9-4 8-4 0-1 1-1 2-1 1 0 22 0 47 0l45-1 0-168 0-168-236 0-4-5c-6-6-19-16-27-21l-6-4 283 0 5 2c7 4 13 10 15 19 2 6 2 12 1 179 0 192 0 190-1 191-1 0-2 3-4 7-2 3-3 6-4 5 0 0-2 2-4 4-2 3-5 6-7 8-3 2-5 5-5 5 0 1-2 4-4 4-1 0-6 5-6 7-1 1-2 2-3 3-3 1-6 5-7 7-1 1-2 2-3 3-3 1-6 5-7 7-1 1-2 2-3 3-3 1-6 5-7 7-1 1-2 2-3 3-3 1-6 5-7 7-1 1-2 2-3 3-3 1-6 5-7 7-1 1-2 2-3 3-3 1-6 5-7 7-1 1-2 2-3 3-3 1-6 5-7 7-1 1-2 3-4 3-2 1-5 3-6 5l-3 2-121 1c-117 0-122 0-126-2z m254-49c-1 0 0-2 1-3 1-1 2-1 2-1 0 1 2 0 4-2 1-2 3-4 3-4-1 0 0-2 1-3 1-1 2-1 2-1 0 1 2 0 4-2 1-2 3-4 3-4-1 0 0-2 1-3 1-1 2-1 2-1 0 1 2 0 4-2 1-2 3-4 3-4-1 0 0-2 1-3 1-1 2-1 2-1 0 1 2 0 4-2 1-2 3-4 3-4-1 0 0-2 1-3 1-1 2-1 2-1 0 1 2 0 4-2 1-2 3-4 3-4-1-1 2-4 3-4 1 1 6-5 7-6 0-3-3-3-35-3l-29 0 0 34c0 31 1 33 2 31 1-1 2-2 2-2z m-272-231c-3-1-8-2-11-2-3-1-5-1-4-1 0 1-9-2-11-4-1 0-5-2-8-4-4-2-10-5-14-8-3-2-6-4-7-4 0 1-2-1-4-2l-2-4 7 6-3-3c-2-2-4-3-4-2-1 0-10-8-10-10 1 0 0-2-2-3l-2-3 5 6-3-2c-2-1-3-3-2-3 0-1-1-3-3-6-2-3-6-9-8-14-3-4-5-9-6-9-1-2-4-11-3-11 1 1 1 0 0-2-3-8-4-18-4-29 0-7 0-12 0-12 1-1 2-7 2-16 0-2 0-2 1-2 1 1 3-7 3-10 0-2 1-4 1-4 2-2 5-8 5-10 0-1 1-3 2-4 3-3 6-8 5-8 0-1 1-2 1-3 1-1 2-2 2-2 0 2 4-2 6-6 0-2 2-4 3-4 3-1 6-4 7-7 1-2 3-3 4-3 1 0 4-2 6-4 2-2 4-4 5-4 2 0 10-5 9-5-2 0 3-2 5-3 3 0 9-2 8-3 0-1 1-1 2-1 1 0 2 0 3-1 3 0 12-2 12-3 1-1 43-1 45 0 2 1 16 4 18 4 2 0 10 4 15 7 2 1 7 5 11 7 10 7 24 21 31 31 2 4 6 9 7 11 3 5 7 13 7 15-1 2 3 16 4 18 1 1 2 27 1 37-1 4-2 8-2 11-2 4-2 6-3 13 0 0 0 1-1 1-1-1-3 5-3 8-1 2-3 7-3 5 0-1-5 7-5 9 0 1-1 3-3 4-4 4-15 16-15 18-1 1-2 3-4 4-2 0-5 3-6 4-1 2-3 3-4 3-2 0-10 5-9 6 0 1-1 1-3 1-4 2-11 4-10 5 0 1-1 1-2 1-9 2-14 3-13 4 0 1-1 1-2 1-6 0-15 1-16 2-2 1-22 1-28-1z m35-46c1-1 2-3 2-3 0-1 0-1 1-1 2 1 2-2 2-21 0-10 0-19 0-20 1 0 10 0 21-1 11 0 20 0 21-1 1 0 3-2 4-4 2-4 2-7 2-19 0-16-1-19-6-21-1-1-10-1-22-1-10 0-19 0-20 0 0-1 0-10 0-21 0-21 0-22-6-26-2-1-5-2-16-2-12 0-13 0-18 3-2 1-5 3-5 4-1 1-1 10-2 21 0 11 0 20 0 21-1 0-10 0-21 0l-19 0-4 4-3 3-1 14c0 14 1 16 4 21 5 4 7 5 27 5l18-1-1 18c0 20 1 22 5 26 4 4 6 5 21 5 14-1 14-1 16-3z"/>
<glyph glyph-name="help" unicode="&#66;" d="M238 511c-86-7-162-55-204-129-38-66-44-147-16-219 13-34 33-63 60-90 12-11 21-19 34-28 65-45 149-56 224-31 21 7 43 17 62 30 25 17 48 39 66 64 54 76 62 175 22 259-20 41-50 76-88 102-35 23-73 37-115 41-9 1-36 2-45 1z m44-59c30-4 59-15 84-31 11-8 20-15 30-26 28-27 46-61 54-100 4-20 5-46 2-67-8-51-34-96-75-128-24-19-52-32-82-38-16-3-38-4-54-3-93 7-167 77-181 169-3 20-2 47 2 67 10 46 34 86 70 115 12 10 22 16 37 23 22 11 45 18 70 20 9 1 34 0 43-1z m-38-52c-23-2-41-11-55-27-19-21-24-37-25-71l0-12 48 0 0 10c0 15 2 24 6 32 3 6 8 12 15 15 3 1 7 3 10 4 5 1 6 1 14 1 9 0 14-1 22-5 4-2 6-3 9-6 3-3 5-5 6-7 4-10 3-22-2-31-3-5-7-8-22-18-24-16-27-19-32-28-4-8-4-10-4-46l0-31 24 0 24 0 1 23c0 21 0 22 1 25 2 4 4 8 8 12 3 3 6 5 19 13 19 12 30 27 35 44 4 14 3 30-2 44-2 6-7 16-11 21-4 7-13 16-19 20-17 13-34 18-57 19-5 0-11 0-13-1z m8-240c-9-2-16-9-18-18-3-11 3-23 13-28 15-7 31 1 35 16 4 13-5 28-18 31-3 0-9 0-12-1z"/>
<glyph glyph-name="reinsurance" unicode="&#67;" d="M226 508c-39-6-77-21-109-43-21-14-53-47-67-67-11-17-25-44-24-46 1 0 4 2 8 6 4 3 12 8 17 10 8 4 12 5 28 5 15 0 19-1 27-5 11-5 23-15 28-24 2-3 4-6 4-6 1 0 4 3 6 7 5 9 16 19 28 24 7 3 11 4 26 4 16 0 19-1 28-5 11-5 25-17 29-26 2-5 4-5 7 1 4 8 17 20 28 25 18 9 46 7 63-3 8-5 20-18 22-23 1-5 5-5 6 0 3 9 21 24 36 29 20 6 44 2 61-10 5-4 9-6 9-6 1 2-6 16-14 31-13 22-38 51-61 69-20 17-51 33-76 41-27 9-40 11-73 12-18 0-34 0-37 0z m-166-294l0-81 42 0 0 14 6-3c7-4 16-12 20-18l3-6-5-4c-6-4-11-17-9-25 2-9 12-19 22-20 7-1 8-2 9-6 1-7 9-15 16-16 11-2 12-3 12-7 0-5 6-14 12-18 7-4 18-5 25-1 4 2 5 2 5 1 1-3 5-9 11-13 4-3 16-3 20-1 2 1 4 0 8-3 8-7 17-7 24 0 4 3 6 7 6 9 0 4 0 4 3 2 10-7 26 0 28 11 1 3 2 5 2 5 0 0 3-1 5-2 11-3 26 8 24 19 0 3 0 3 9 2 9 0 9 0 15 6 8 9 8 17 0 29-4 5-5 9-5 10 1 2 8 10 15 18 15 15 28 25 28 20 0-3 3-3 22-3l21 0 0 162-43 0 0-9 0-9-31-18-31-18-44 1c-27 0-45 1-48 2-9 3-38 4-54 1-10-1-17-2-22-1-4 1-23 9-43 18l-35 16 0 9-1 8-42 0z m351-6l0-52-8-4c-11-6-20-14-34-29-9-12-11-13-14-12-2 1-7 2-11 2-6 0-8-1-13-6-6-6-8-15-6-20 2-2 2-3-3-2-11 2-22-6-22-16l0-5-8 0c-10 1-16-3-19-12-2-8-4-9-11-9-5 0-15-9-15-13 0-2-1-5-3-6-7-4-15 5-11 11 1 1 10 8 19 15 10 7 18 14 18 15 0 4-4 8-8 8-2 0-11-5-21-12-32-23-35-25-40-25-6 0-10 3-10 10 0 7-2 6 37 33 29 21 31 23 25 29-3 4-6 4-14-3-27-20-59-42-63-43-2 0-7 0-9 1-5 2-5 3-5 9l1 7 37 25c30 20 36 26 36 29 0 2-1 5-3 6-4 3-6 1-33-17-17-11-35-24-41-28-7-5-14-9-16-9-8 0-14 10-10 17 1 3 127 95 130 95 4 2 16-13 21-25 11-25 27-35 39-22 4 4 4 3-2 36-2 11-5 22-6 24-2 3-12 11-17 15-3 1 2 1 19 1 14-1 26 0 32 1 5 1 18 7 34 17 14 8 26 15 27 15 1 0 1-23 1-51z"/>
<glyph glyph-name="report-search" unicode="&#68;" d="M122 506c-14-2-25-13-29-27 0-4-1-37-1-113l0-108-19-20c-26-27-57-60-57-62 0-1-1-2-1-3-1 0-1 0 0 1 0 1 0 1-1 1-1-1-1-1-1-2 1 0-1-3-2-6-4-6-11-26-10-27 0 0 0-5 1-9 0-5 1-9 2-11 1-1 1-3 1-3 0-1 1-2 3-4 1-2 1-3 1-4 0 0 0-1 1-1 2-1 6-3 10-7 1-1 3-2 4-2 1 0 6 0 10-1 5-1 9-1 9 0 1 0 4 1 6 2 6 2 15 6 20 9 1 2 3 3 4 2 1 0 11 10 10 11 0 0 2 3 4 7l5 7 0-50c0-27 0-50 1-50 0 0 2-6 2-11 0-1 2-4 5-7 2-2 4-5 4-5-1-1 2-2 9-5 3-1 5-2 5-3 0 0 83 0 184 0 139 0 185 0 188 1 4 2 16 14 18 18 1 2 2 6 3 9 0 3 0 90 0 195l0 189-4 4c-3 2-4 5-4 5 0 0-1 2-2 3-1 1-2 1-2 1 0-1-2 0-4 2-2 2-3 4-3 5 0 0 0 1-2 2-1 1-2 2-2 1 0 0-1 1-3 3-2 2-4 4-4 4 0 1 0 2-1 3-2 1-2 1-2 1 0 0-2 1-4 3-2 2-4 4-3 4 0 1-1 2-3 2-2 1-5 3-7 6-1 2-3 4-4 4-1 1-9 10-11 11 0 0-2 3-5 5-2 2-4 4-4 5 0 1-1 2-2 2-1 0-9 7-9 9 0 1-1 1-1 1-1 0-2 1-3 2-2 2-16 2-149 2-80 0-148 0-151-1z m282-29c0-4 0-15 0-24 0-9 0-19 1-22 0-3 1-7 1-8 0-4 0-5 2-5 2 0 9-8 8-9-1-1 2-4 3-3 0 0 3-1 6-2l6-3 28 0 29 0 0-183c0-181 0-183-2-186-2-1-3-3-5-3-2-2-355-2-355-1 0 1-2 1-3 2-8 1-7-1-7 71l-1 66 9 12c5 6 8 12 8 12-1 1 0 2 0 2 1 1 1 1 1 0-1-1-1-2 0-1 1 0 1 1 1 2 0 0 6 10 14 22 17 24 18 26 12 32-1 2-3 4-3 5 0 1-3 2-4 2-1 0-1 0-1 1 0 1 29 37 30 37 2-1 6-4 5-4-2 0 3-2 5-2 3-1 10-3 10-4-1-1 0-1 1-1 5-1 9-1 13-2 3-1 10-2 16-2 10 0 13 0 24 3 6 2 12 3 11 3-1-2 8 2 11 4 1 1 5 5 9 7 9 6 20 18 26 26 2 4 5 7 6 9 3 2 5 7 5 11 1 4 4 18 5 19 2 2 1 28 0 31-1 1-1 4-1 8-1 3-2 7-3 7 0 1-2 5-3 8-1 4-3 8-4 10-2 1-3 4-4 5 0 2-2 4-3 6-2 1-5 4-6 7-2 2-3 4-4 4-2 0-9 6-8 7 0 0-1 1-2 2-7 3-10 5-12 7-1 1-2 2-4 2-2 0-10 3-11 4 0 1-2 1-5 2-2 0-7 0-9 1-3 1-10 2-17 2-9 0-13-1-22-3-6-2-11-3-11-3-1 1-12-5-21-11-9-6-19-16-25-25-3-4-6-8-7-9-2-2-8-15-6-14 0 0-1-4-2-9-1-5-2-9-3-9 0 0 0-7 0-15 0-8 0-14 1-14 0 0 2-6 2-14 1-2 1-3 2-4 1-1 4-8 4-9 0-2 2-6 2-5 1 0 3-3 5-7 1-4 3-7 4-6 0 0 6-7 6-8 0 0-5-7-12-15-7-9-12-16-12-16 0-1-1-3-2-4-2-2-3-3-2-2 0 1 0 2-2 3-1 0-3 1-3 1 0 0-3 1-5 3-3 1-5 3-6 3-1 0-2 1-2 2 0 1-1 44-1 96 1 74 1 94 2 96 1 2 1 3 1 4-1 1 2 3 4 4 1 0 4 0 6 1 2 0 65 1 140 1l135 0z m32-17c1-1 2-3 3-5 1-1 2-3 3-3 3-1 7-5 8-8 0-1 2-2 3-3 3-1 7-5 8-8 0-1 1-2 2-2 2-1 8-6 8-7 0-1-8-1-17-1-10 0-17 0-17 1 0 0-2 1-4 2-1 1-3 2-4 3-1 2-2 20-1 29 0 6 0 7 3 5 1 0 3-2 5-3z m-191-12c4 0 12-2 12-3 0 0 2-1 4-1 4-1 10-4 10-5 0-1 2-2 5-3 4-3 9-7 7-7 0 0 0-1 2-2 1-1 2-2 2-2 1 1 7-6 7-7 0-1 1-3 2-4 3-3 5-7 6-12 0-2 1-4 1-3 1 0 3-5 3-12 0-2 1-7 1-11 1-4 1-8 0-9-2-3-3-11-2-10 1 1-1-5-5-14-3-7-6-11-13-18-13-13-25-20-36-21-3 0-7-1-8-2-2-1-6-1-12 0-4 0-9 0-9 0-5 0-10 2-12 3-1 1-3 2-4 2-3 0-13 5-11 5 2 0-3 3-5 3-1 0-3 2-6 5-2 3-4 5-5 5-1 0-6 6-6 7 0 2-3 7-3 5 0-1-4 7-5 10 0 1-1 4-3 6-1 3-2 7-2 11 0 3 0 6-1 6-1 0-1 9 0 13 1 1 2 5 2 8 0 6 3 13 8 22 1 2 7 9 13 15 9 9 13 12 20 15 4 2 10 4 13 4 3 0 6 1 8 2 1 0 6 0 11 0 6 0 10-1 11-1z m-121-200c2-2 3-4 4-3 0 0 2-1 4-3l4-3-2-3c-5-5-17-22-16-23 0-1 0-1-1-2-1 0-1 0 0 1 0 1 0 1-1 1 0-1-1-2 0-2 0-1-25-38-30-44-6-7-18-24-18-25 1-1 0-1 0-2-1 0-1 0-1 1 1 1 1 1 0 1-1-1-1-2-1-2 1-2-11-14-12-13-1 1-2 0-2 0 0-1 0-1 1-1 1 1 1 1 0 0 0-1-1-1-1-1-1 1-4 0-7-2-7-3-12-3-15-1-1 1-2 2-1 2 0 0-1 2-3 3-2 3-2 5-2 9 0 2 0 5 0 5 2 2 7 14 6 13-5-3 8 12 46 53 28 31 43 46 44 45 1 0 3-2 4-4z m320 112c-1-1-3-3-4-4-2-3-3-5-3-41 0-38 1-53 3-55 2-2 10-3 13-1 8 3 8 3 8 50 0 39 0 43-2 46-1 3-3 5-3 6-2 1-9 1-12-1z m-55-22l-3-2 0-35c0-37 0-38 4-42 3-2 7-2 12 0 6 3 6 5 6 42 0 19 0 35 0 35-5 3-8 4-12 4-4 1-5 1-7-2z m-44-18c-11-3-12-4-12-33 0-15 1-24 2-26 0-1 1-2 1-1 1 0 2 0 2-1 2-1 12-2 14-1 4 2 4 5 4 28 1 20 0 23-1 26-1 2-2 5-3 6 0 1-1 1-1 1-1 0-2 1-3 1 0 0-2 0-3 0z m-51-73c0-1-7-3-15-3-4-1-11-3-13-5-1 0-5-3-9-5-16-8-30-22-39-39-8-13-8-15-9-19 0-3-1-7-2-11-1-7-1-33 0-35 2-2 3-7 3-12 1-2 1-4 2-4 1-1 4-8 5-11 0-1 1-3 2-4 2-1 4-4 5-7 2-3 3-6 4-6 0 0 3-2 5-5 3-3 5-5 6-5 0 0 3-2 6-5 3-3 5-5 6-5 0 0 3 0 5-2 3-2 4-3 4-3-1 0 0 0 1-1 2-1 4-1 4-1 1 0 4-1 7-2 4-2 9-3 14-4 4 0 8-1 8-2 1 0 3 0 6 0 3 0 8 1 12 1 7 0 23 4 30 8 2 1 3 1 3 0-1 0 1 0 3 1 3 1 5 4 6 6 2 2 2 3 0 9-1 3-2 5-2 6 0 3-2 5-2 5-1-1-5 6-5 9 0 0-1 1-1 2 0 0 0 1-1 2-3 3-5 8-6 11 0 1-1 3-2 3-2 2-5 8-5 10 0 1-1 3-2 4-2 2-5 7-6 11 0 2 0 3 2 3 1 0 2 1 4 1 2 2 16 7 19 6 2 0 10 2 12 4 2 1 19 6 20 6 1-2 11 3 15 7 5 5 5 8 2 14-1 3-2 6-3 9 0 2-1 4-1 4-2 0-5 5-6 10-1 2-2 3-2 2-1 0-8 8-7 9 1 1-3 4-4 4 0-1-3 2-5 4-2 3-5 5-6 5-2 1-10 6-9 6 1 1 0 1-1 2-2 1-3 1-4 1 0 0-4 1-7 3-4 2-8 4-8 3-1 0-10 2-12 3-1 1-3 1-5 1-3 0-8 0-13 1-5 0-8 0-9 0z m19-24c0-1 2-1 4-2 5 0 13-2 13-3 0-1 3-2 5-2 2 0 9-4 9-5 0-1 2-2 4-3 2-1 6-4 7-7 2-2 4-4 5-4 1 0 6-6 6-8 0-1 1-3 2-5 4-3 3-4-4-5-3 0-7-1-9-2-6-3-23-8-22-7 1 1-6-1-12-4-5-2-19-6-18-5 1 3-6-1-9-4-2-3-2-4-2-7 1-7 4-14 5-15 2-1 5-7 5-9 0-1 2-4 4-7 2-3 4-6 4-8 0-1 1-3 2-4 2-2 5-7 6-11 0-2 1-3 1-3 2 0 6-9 5-10 0-1 0-1 1-2 2-1 1-2-6-5-7-2-9-2-18-1-13 1-18 1-17 3 0 0-1 1-6 1-2 0-10 4-10 5 1 1-2 2-5 3-2 0-8 5-8 6 1 0 0 1-1 2-1 1-2 2-2 1 0-1-7 6-7 7 0 2-3 6-4 6-1 0-4 5-5 10 0 2-1 3-1 3-1 0-4 7-4 12 0 2-1 6-2 9 0 4 0 8 0 9 1 1 1 4 1 7 0 17 16 40 36 54 10 6 21 10 25 9 1 0 4 0 6 1 5 1 16 1 16 0z"/>
<glyph glyph-name="search-engine" unicode="&#69;" d="M209 492c-21-4-35-9-53-18-15-7-27-15-39-25-8-6-22-20-28-27l-4-4 60 0 6 9c19 31 40 50 66 62 5 1 8 3 8 4 0 1-8 1-16-1z m61 1c0-1 3-2 8-4 14-6 27-15 39-26l6-7-3 0c-2 0-3 1-9 6-11 11-27 20-41 25-7 2-17 3-19 2-1-1-1-7-1-26l0-25-3-2-2-1 0 27c0 21 0 27-1 28-2 0-12-1-20-4-26-8-50-29-70-62l-4-6 75 0-3-3-2-3-36 0-37 0-2-3c-4-7-13-29-17-40-5-17-9-33-8-34 1-1 16-1 35-1l33 0 0-4-69 0-1-3c-3-16-4-49-1-68 0-7 1-12 1-12 1-1 23-1 50-1l48 0 3-2 2-3-51 0c-35 0-51 0-51-1 0-1 5-18 6-22 1-4 1-5 0-5-3-2-3-1-8 18l-2 10-35 0-34 0 0-2c0-2 2-8 4-15 3-9 3-11 2-11-3 0-27 6-30 7-2 2-4 5-4 9 0 3 0 3 10 13l10 10-1 5c-1 3-1 8-1 10 0 3 0 5-1 5-1 0-13-10-19-17-11-11-16-20-16-29 0-7 2-11 7-16 9-7 23-12 43-15l12-1 3-6c4-8 14-23 16-24 1 0 14-1 31-1 25 0 29 0 29 2 0 0-2 4-3 7-2 4-5 11-7 15l-3 8 2 0c2 1 3 1 3 1 0-1 2-6 5-13 3-7 6-14 7-16l2-3 49-1 49 0 0 26c0 23 0 26 1 27 4 1 4 2 4-26l0-26 98 0 4 7c2 4 5 12 7 17l4 10 2-3c1-3 1-3-2-11-2-5-5-11-6-13-4-8-5-8 11-8l13 0 2-2 1-3-17 0-17 0-2-4c-12-19-20-30-32-41-12-13-27-22-42-28-4-1-6-2-7-2-4-4 34 3 53 10 24 9 48 24 68 42l5 5 1-2c1-2 15-28 31-58 15-31 29-57 30-58 5-6 22-5 37 4 7 4 16 13 18 18 1 2 2 5 2 8 0 3-2 7-42 68l-41 65 5 12c6 11 14 33 15 41l1 3-38 0 2 3 2 2 35 0 1 2c2 9 3 24 3 37l1 15 6 5c16 12 26 23 31 33 3 7 3 15 0 20-4 9-15 15-30 19-9 2-23 5-24 4 0 0 1-5 3-9 4-9 4-9 7-10 11-1 17-4 24-8 3-2 3-3 3-6 0-1 0-4-1-5-4-7-15-18-22-22-2-1-4-2-5-3l-2-1-1 4c0 2 0 6 0 10-1 29-11 56-30 79-3 4-6 8-7 9-1 3-23 25-32 32-26 21-56 34-88 40-11 3-18 3-18 2z m54-57c21-2 36-8 54-19 14-10 26-23 35-39 7-16 11-29 12-46 1-30-10-60-32-81-15-16-35-26-57-30-10-2-30-2-40 0-23 5-40 14-56 30-10 10-16 19-22 31-16 33-13 73 8 105 6 10 20 24 29 30 15 10 32 16 48 18 9 1 10 1 21 1z m-247-29c-12-18-24-42-30-64-2-7-2-7 0-8 2-1 63-1 66 0 2 0 2 1 4 9 4 17 13 43 21 59 2 5 4 8 4 9 0 0-14 0-31 0l-30 0z m-33-78c0 0-1-5-2-10-2-12-2-51 0-63 1-5 2-9 2-9 0-1 16-1 35-1 27 0 34 0 34 1 0 1 0 5-1 10-1 4-1 16-2 26 0 15 0 20 2 32 1 7 1 14 1 14 0 1-68 1-69 0z m44-173c0-2 14-17 24-26 31-25 63-40 101-47 17-3 21-2 9 2-15 5-28 14-41 26-11 10-18 19-26 31-4 5-7 11-9 13l-2 3-56 0z m63 1c0 0 2-4 5-9 16-25 35-43 56-53 10-6 28-10 32-9 1 0 1 6 1 36l-1 36-46 0c-31 0-46 0-47-1z m99 0c0 0 0-17 0-36l0-35 5 0c20 1 49 18 67 38 9 11 21 30 21 32 0 2-5 2-46 2-37 0-46 0-47-1z"/>
<glyph glyph-name="setup" unicode="&#70;" d="M213 495c-4-1-9-3-11-5-4-4-4-6-4-15 0-18-4-24-19-30-4-2-11-5-15-7-4-2-11-3-16-4-7 0-8 1-17 9-9 8-11 9-17 9-7 0-8 0-31-23-20-21-23-25-23-29 0-8 2-12 11-21 4-5 8-10 8-11 0-6-1-13-5-22-12-29-13-31-34-32-12-1-14-2-17-6-4-5-4-6-4-37l0-32 6-6c6-6 6-6 18-6 19 0 20-1 34-35 5-11 5-12 3-19-2-4-7-10-11-14-6-6-8-9-8-14 0-5 3-8 24-29 24-24 24-24 32-24 7 0 8 0 17 8 12 12 16 13 37 4 10-4 19-9 22-11 4-4 7-12 7-24 0-9 1-12 9-17 4-3 8-3 33-3 16 0 31 1 33 2 8 3 12 11 12 24 0 17 1 18 31 32 3 1 7 2 9 3 2 1 4 2 4 2 0 1-11 12-23 26l-24 24-11-3c-14-5-45-5-61-1-41 11-72 42-85 85-5 16-4 46 1 62 2 6 4 12 4 12 1 3 6 12 10 18 19 31 48 50 84 55 28 4 56-3 82-20 11-7 30-25 30-28 0-1 1-3 2-4 2-2 10-19 13-27 9-22 9-56 0-78-2-4-1-5 6-13 33-35 43-46 44-46 0 0 1 3 1 7 0 3 1 9 2 12 2 3 5 11 8 18 6 14 11 18 25 18 12 0 19 2 23 8 4 7 6 57 1 68-3 9-11 12-26 12-8 0-11 1-15 5-3 2-6 6-6 9-1 4-4 10-11 25-4 9-1 17 8 27 8 8 9 10 9 17 0 7-1 8-23 30-23 23-24 23-31 23-7 0-9-1-17-9-10-9-10-9-19-8-11 1-36 11-42 18-4 4-5 7-5 16 0 23-4 25-39 26-15 0-30 0-33-1z m-2-135c-10-2-16-6-14-12 1-2 8-8 19-14 20-12 31-23 31-29 0-3-2-11-5-18-4-11-7-16-13-22-12-13-17-13-32-4-7 4-15 10-20 13-7 6-15 7-21 5-5-2-1-21 5-28 2-1 3-3 3-4 0-2 0-3 1-3 1 0 5-6 9-12 8-12 18-21 28-27 5-3 9-4 20-4 16 0 35-3 46-9 7-4 39-36 77-77 6-6 16-18 24-25 34-36 49-52 57-62l10-10 10 1c21 2 42 21 42 39 0 5-1 8-8 15-5 4-18 19-29 31-25 27-47 50-83 89-36 39-43 47-49 55-8 12-11 25-11 48 0 18 0 22-4 29-9 18-29 32-50 35-13 2-31 2-43 0z"/>
<glyph glyph-name="switch" unicode="&#71;" d="M368 443l1-45-126-1c-134-1-127 0-151-9-10-3-25-12-35-20-9-7-23-21-23-23 0-1-1-2-3-4-2-1-3-3-3-3 1-1 0-2-1-2-1 0-1-1-1-2 0-2-1-3-2-3-1 0-12-22-13-28 0-1-2-7-3-13-4-13-4-46 0-58 3-12 5-19 7-19 0 0 9 7 19 15 10 9 19 16 20 17 3 2 3 2 1 5-3 3-2 26 2 36 10 26 23 42 44 53 20 10 14 10 146 10l122 1 0-45c0-25 0-46 0-46 2 0 13 10 27 21 10 8 19 16 32 26 48 41 79 67 79 68 0 0-10 9-22 20-13 10-31 25-42 34-10 9-24 20-30 25-6 5-18 15-26 22-9 7-16 13-18 13-1 0-1-16-1-45z m114-147c-8-7-17-14-20-17-6-5-6-5-4-12 1-6 1-16-1-28-1-2-3-8-5-13-10-26-30-44-58-53-10-4-13-4-131-4l-120 0 0 46c0 25 0 46-1 46-1 0-13-10-69-57-18-15-34-28-36-30-23-18-32-26-32-27 0-1 14-14 33-29 7-5 21-17 31-26 10-8 24-20 30-25 6-5 18-14 26-22 9-7 17-13 18-13 1 0 1 16 1 46l-1 45 126 0c134 1 127 1 151 9 10 4 25 12 35 20 9 8 23 22 23 24 0 0 1 2 3 3 2 1 3 3 3 4-1 1 0 1 1 1 1 0 1 2 1 3 0 1 1 2 2 2 1 0 12 22 13 29 0 1 2 6 3 12 4 14 4 46 0 59-3 12-5 18-7 18-1 0-7-5-15-11z"/>
<glyph glyph-name="underwriting" unicode="&#72;" d="M119 463c-2-1-6-4-8-6l-4-4-12 0c-9 0-12 0-16-2-6-3-12-8-15-15l-2-5 0-337 3-5c3-7 10-13 16-15 3 0 9-1 14-1l8 0 0-4c1-6 6-13 11-17 7-5-4-5 163-5 148 0 154 0 158 2 5 2 11 8 14 13 2 4 2 7 2 154l0 149-3 6c-3 4-10 11-52 47-30 25-52 43-55 44l-5 3-106 0c-102 0-107 0-111-2z m195-69c0-39 0-41 2-44 1-2 3-4 5-5 3-2 5-2 51-2l47 0 0-265-284 0 0 356 179 0z m-211-131l0-158-9 0 0 316 9 0z m269 133c12-11 23-20 24-21 1-1-2-1-24-1l-26 0 0 22c0 16 0 21 1 20 1 0 12-9 25-20z m-185-84c-5-3-8-8-8-14 0-6 3-11 8-14l4-2 91 0c86 0 90 0 94 2 5 2 8 7 8 14 0 7-3 11-8 14-4 2-8 2-94 2l-91 0z m3-51c-2-1-5-3-7-5-3-3-3-4-4-9 0-6 0-7 2-10 1-2 4-4 6-5 3-2 8-2 81-2l78 0 3 2c6 4 8 7 8 14-1 6-3 11-8 14-3 1-9 1-80 2-42 0-78-1-79-1z m-4-52c-4-3-7-8-7-14 0-5 3-10 7-13 3-2 6-2 96-2 90 0 92 0 95 2 5 3 7 7 7 15-1 5-1 6-4 10l-4 3-93 1c-92 0-94 0-97-2z m0-48c-4-3-7-8-7-14 0-5 3-10 7-13 3-2 5-2 82-2l78 0 4 2c4 2 7 9 7 13 0 5-4 12-8 14-3 2-8 2-81 2-77 0-79 0-82-2z"/>
<glyph glyph-name="add" unicode="&#73;" d="M77 507c-2-3-3-18-3-45l0-40-33 0c-28 0-33 0-37-4-4-5-4-22-4-207 0-134 1-203 3-206 2-5 7-5 216-5 209 0 214 0 216 5 1 3 3 18 3 33l0 29 32 0c23 0 32 0 32 3 0 1 1 2 2 1 0-1 3 0 4 3 3 3 4 45 4 216 0 142-1 214-3 217-2 5-7 5-215 5-210 0-213 0-217-5z m412-215l0-192-51 0 0 157c0 142-1 156-5 161-3 4-12 4-170 4l-166 0 0 62 392 0z m-74-81l0-183-392 0 0 183-1 183 393 0z m-204 122c-5-5-5-9-5-57l0-51-39 0c-22 0-42-1-44-2-6-3-7-18-2-23 2-2 15-3 44-3l41 0-1-46c0-40 0-48 4-57 6-12 13-13 20-1 4 7 4 14 3 56l0 48 41 0c39 0 42 0 44 5 4 7 4 14-2 19-4 4-11 4-44 4l-39 0 0 50c1 33 0 50-2 50-1 0-2 1-2 3 0 3-7 10-10 10-1 0-4-3-7-5z"/>
<glyph glyph-name="addbank" unicode="&#74;" d="M120 465c-48-22-91-41-95-44-7-3-7-4-7-24 0-18 0-21 6-24 5-4 27-4 193-4 216 0 195-3 195 28 0 14-1 21-3 23-2 1-44 21-93 43-63 29-92 41-98 41-6 0-40-14-98-39z m-57-118c-1-3-2-43-2-89 0-63 1-86 4-89 4-4 35-4 39 0 5 5 5 174 0 179-1 1-10 3-21 3-14 0-19-1-20-4z m132 1c-4-5-5-174 0-179 4-4 36-4 40 1 2 2 3 29 3 91l-1 88-19 1c-13 1-21 0-23-2z m131 1c-3-1-3-13-3-47l0-47 5 2c4 1 14 4 23 7 13 3 16 5 18 10 2 9 1 70-1 74-2 3-35 4-42 1z m32-107c-28-8-59-31-74-55-11-17-18-41-18-64 0-50 27-92 73-114 17-7 19-8 50-8 31 0 33 1 50 9 25 12 50 37 62 61l10 20 0 33c0 33-1 34-9 51-12 24-34 45-61 58-20 10-23 11-46 12-16 0-29-1-37-3z m41-88l0-21 39 0 0-20-39 0 0-39-20 0 0 39-41 0 0 20 41 0 0 41 20 0z m-380-9c-1-2-1-11-1-20l1-16 113-1 112 0 0 20-1 20-111 0c-92 0-112 0-113-3z m-2-53l-16-1 0-18c-1-12 0-18 2-19 2-2 60-3 130-3 119 0 126 0 125 5-1 2-4 11-7 20l-6 16-23 0c-13 0-61 1-107 1-46 0-90 0-98-1z"/>
<glyph glyph-name="addbankbranch" unicode="&#75;" d="M157 466c-50-25-92-47-95-49-5-6-5-17 2-24 6-6 20-11 29-9 3 0 9 0 13-1l9-2 0-58-59 0 0-47 400 0 0 47-59 0 0 58 7 1c4 1 12 2 17 2 13-1 23 4 31 14 10 13 6 16-95 67-67 34-94 47-101 47-6 0-34-13-99-46z m140-21l35-17-152 0 35 17c19 10 37 18 41 18 4 0 22-8 41-18z m-69-92l0-32-28 1-28 1 0 61 56 0z m112 1l0-31-28-1-28-1 0 63 56 0z m-302-125l-9-8-1-46 0-47 59 0 0 61 141 0 0-61 56 0 0 61 141 0 0-61 59 0 0 47-1 46-9 8-9 7-418 0z m4-146c-15-4-24-10-31-17-27-29 4-69 52-65 38 3 60 32 44 58-7 12-14 17-33 23-19 6-18 6-32 1z m200 0c-23-7-34-16-41-32-3-8-3-10 1-19 9-20 29-32 54-32 25 0 45 12 54 32 4 9 4 11 1 19-8 19-26 31-54 35-3 0-9-1-15-3z m193-1c-32-11-45-35-31-58 17-27 66-32 92-10 29 24 14 60-28 69-14 4-19 3-33-1z"/>
<glyph glyph-name="addlist" unicode="&#76;" d="M29 504c-10-5-16-11-21-21l-8-13 0-180c0-145 1-182 3-188 5-12 17-25 29-31 10-5 13-6 113-6 57-1 103 0 103 1 0 1-2 10-5 20l-4 18-94 1c-87 1-94 1-99 6-5 5-5 5-5 178 0 168 0 172 5 177 5 5 9 5 187 5 178 0 182 0 187-5 5-5 5-9 5-101l0-96 10-3c5-2 14-6 21-9l11-6-1 109 0 110-8 13c-5 9-11 15-20 21l-14 8-382 0z m63-89c-2 0-6-3-9-6-5-5-6-8-6-23 0-15 1-18 6-24 6-5 9-6 24-6 17 0 18 0 25 8 6 7 7 10 6 24-2 22-7 27-27 29-8 0-17 0-19-2z m88-7c-5-5-6-8-6-24 0-16 1-18 8-24l8-7 183 0 8 7c8 6 8 8 8 24 0 16-1 19-6 24l-6 7-190 0z m-97-97c-5-5-6-8-6-24 0-15 1-18 6-23 4-4 11-6 19-7 25-3 36 8 36 32 0 10-1 14-6 21-7 7-8 7-25 7-15 0-18 0-24-6z m97 0c-5-5-6-8-6-24 0-15 1-18 7-24 6-6 7-6 70-6l64-1 17 7c10 3 26 8 37 9l20 3 0 15c0 12-1 16-6 21l-6 6-190 0z m179-77c-21-5-37-15-53-32-15-16-23-29-28-50-10-38 0-76 27-105 16-17 30-25 51-32 71-22 146 34 146 109 0 29-11 56-32 78-29 31-71 43-111 32z m48-73l0-20 38 0 0-36-38 0 0-38-37 0 1 19 1 19-42 0 0 36 41 0 0 41 36 0z m-179 60c-39-1-43-1-48-6-5-5-6-8-6-24 0-17 1-19 7-25 6-5 8-6 34-6l27 0 6 16c5 15 17 36 22 39 7 5-4 6-42 6z m-146-7c-4-5-5-9-5-24 0-15 1-18 6-23 13-13 44-10 51 5 8 14 3 43-7 47-3 0-12 1-22 1-15 0-18-1-23-6z"/>
<glyph glyph-name="addmember" unicode="&#77;" d="M170 505c-9-3-20-6-22-7-2 0-4-1-3-2 0 0-4-5-11-10-11-8-23-22-29-32-2-3-4-5-6-4-1 1-2 0-1-1 1-2 0-9-4-17-10-26-9-65 4-93 30-68 116-95 179-55 45 29 67 84 54 134-11 43-42 77-83 89-23 7-55 7-78-2z m-17-272c-29-6-38-9-59-20-10-4-19-8-20-7-2 1-2 1-2 0 1-2-5-8-13-14-15-11-30-26-36-38-1-3-4-5-6-4-1 1-2 1-1-1 1-1 0-9-3-17-5-12-5-21-5-67 0-53 0-54 6-59l5-6 289 0-12 11c-24 23-40 57-42 91-2 39 11 75 38 104 9 8 15 16 15 16 0 1-27 9-44 12-28 6-81 5-110-1z m212-12c-8-2-16-3-18-2-1 1-2 1-1 0 1-1-3-5-10-9-17-10-38-33-46-50-20-43-12-88 22-124 52-56 144-42 178 26 32 67-4 142-76 159-19 5-29 5-49 0z m37-76l0-25 12 0c7 0 17 0 23 0l11 1 0-21-46 0 0-46-21 0 1 22 1 23-24 0-24 1 0 20 22 0c12 0 23 1 24 1 0 1 1 12 1 25l0 23 20 0z"/>
<glyph glyph-name="approve" unicode="&#78;" d="M260 507c-24-7-47-18-66-31l-17-13-177 0 0-463 392 0 0 168 16 7c35 15 69 48 87 85 13 25 17 41 17 74 0 32-6 57-21 83-24 42-72 78-124 91-22 6-86 5-107-1z m97-37c52-13 94-52 108-100 6-21 6-54-1-76-14-43-48-77-95-92-22-7-28-8-54-8-26 0-32 1-54 8-28 9-51 25-70 47-15 18-23 35-28 59-5 24-5 29 0 52 17 82 105 131 194 110z m-217-49c-8-16-16-35-19-47-4-16-5-60-1-76 2-5 3-11 3-12 0-1-6-2-13-2l-13 0 0-38 23 0 22 0 8-11c4-6 9-13 11-15 3-5 2-5-30-5l-34 0 0-38 120 0 20-8c29-12 52-16 84-15l28 1 0-117-307 0 0 384 50 0c27 0 49 0 48-1z m203-66l-57-53-11 10c-6 5-20 18-32 29-12 11-24 20-25 20-4 0-29-23-28-26 2-4 92-84 95-84 2 0 31 24 64 54 32 30 64 59 70 64 6 6 11 10 11 11 0 1-26 26-28 26-1 1-27-23-59-51z m-246-231l0-19 197 0 0 38-197 0z"/>
<glyph glyph-name="assignment" unicode="&#79;" d="M146 481l-4-29-29-1-29-1 0-236-20-18-20-18 8-9 9-9 30 28c48 45 51 48 55 44 2-3-5-11-37-40-22-20-40-37-40-38 0-3 20-21 23-21 2 0 21 16 42 36 32 29 40 35 42 32 3-3-5-11-36-40l-40-37 9-9c8-7 9-8 12-5 5 6 71 67 78 72 9 6 35 94 30 96-2 1-26-3-52-9-43-10-48-11-53-18-3-4-10-10-15-14l-9-7 0 210 266 0 1-30 0-30 34-1 34 0 0-369-335 0 0 41c0 40 0 40 6 46l7 6-34 34c-19 19-36 35-38 35-2 0-12-8-21-18-13-12-17-18-17-22 1-7 59-63 65-63 3 0 8 2 11 4l5 4 0-77 367 0 0 12c0 11 0 11 9 11 4 0 8 0 9 1 0 1 18 171 30 286 12 121 16 166 11 166-5 0-337 31-349 32l-12 2z m273-9l80-7 0-10c0-5-1-15-2-22-2-7-11-95-21-196-19-201-20-201-23-201-1 0-2 66-2 178 0 103-1 178-3 178-1 1-17 14-35 30l-34 29-110 0-111-1 2 10c1 5 2 16 3 23l1 13 88-9c48-4 123-11 167-15z m5-78c5-5 4-5-20-5l-25 0 0 44 20-17c11-10 22-20 25-22z m-210-132c2-3-17-62-19-62-1 0-13 11-27 25l-25 25 10 3c14 4 53 13 56 13 2 0 4-2 5-4z m-91 30c0-5 2-5 139-5 138 0 140 0 140 5 0 5-2 5-140 5-137 0-139 0-139-5z m107-62c0-5 2-5 86-5 84 0 86 0 86 5 0 6-2 6-86 6-84 0-86 0-86-6z m-39-61c-5-5-5-5 103-5 106 0 108 0 108 5 0 5-2 5-103 5-100 0-104 0-108-5z m-64-61c-5-6-5-6 135-6 138 0 140 0 140 6 0 5-2 5-135 5-132 0-136 0-140-5z"/>
<glyph glyph-name="attach" unicode="&#80;" d="M86 507c-15-8-26-20-33-33l-6-12 0-197c-1-132 0-201 2-210 1-7 5-17 8-21 3-6 5-11 5-12-1-2 0-2 1-1 1 1 4 0 7-3 3-3 11-8 17-11l12-6 312 0 12 7c7 3 17 11 23 17 18 21 17 19 17 192l0 154-18 21c-10 11-19 22-18 23 0 2 0 2-2 1-2-1-27 27-26 30 0 1 0 2-1 1-2-1-16 14-32 32l-29 33-121 0c-117 0-120 0-130-5z m221-94l0-65 121 0 0-141c0-158 0-153-18-165l-9-6-146 0c-159 0-157 0-167 15-5 6-5 18-5 206 0 188 0 200 5 207 10 14 12 15 120 15l99 0z m62 6c0-1 1-2 3-2 3 0 11-10 10-13 0-2 0-2 2-1 2 1 18-15 18-18 0 0-13-1-30-1l-29 0 0 68 14-16c7-8 13-16 12-17z m-104-89c-7-1-14-1-15-1-1 1-2 1-1-1 1-2 1-3-1-3-2 0-8-3-13-6-14-11-84-81-82-84 0-1 2-2 3-1 2 2 14-11 14-13-1-1 0-2 1-2 1 0 3-1 5-2 1-1 7 2 14 9 67 66 68 66 80 69 23 4 47-9 59-32 7-15 8-29 3-41-5-10-108-113-117-117-20-7-43 11-43 35 0 9 2 12 51 61 29 29 54 52 56 52 5 0 13-7 13-11 0-2-15-18-33-36-19-18-34-34-34-36 0-1 6-7 12-13l12-11 37 37c21 20 38 38 39 40 0 2 1 9 2 15 1 15-7 32-22 42-9 6-13 8-25 8-10 0-17-2-21-4-6-5-104-101-116-114-5-6-6-11-7-25 0-12 1-22 3-29 2-6 4-11 3-11-4 0 25-25 34-29 14-7 42-8 55-3 13 7 128 120 134 133 4 8 5 15 5 33 0 20-1 25-7 37-20 39-60 60-98 54z"/>
<glyph glyph-name="close" unicode="&#81;" d="M39 473c-21-22-39-40-39-42 0-1 39-41 86-88l87-87-87-87c-47-47-86-87-86-88 0-4 77-81 81-81 1 0 41 39 88 86l87 87 87-87c47-47 87-86 88-86 4 0 81 77 81 81 0 1-39 41-86 88l-87 87 87 87c47 47 86 87 86 88 0 4-77 81-81 81-1 0-41-39-88-86l-87-87-87 87c-47 47-87 86-88 86-2 0-21-18-42-39z"/>
<glyph glyph-name="edit" unicode="&#82;" d="M447 507c-6-3-19-13-28-23l-18-18 33-32 32-33 18 18c27 27 33 44 23 66-5 12-11 18-24 23-12 5-24 5-36-1z m-447-283l0-224 448 0 0 161c0 89-1 162-2 162 0 0-15-14-32-30l-30-30 0-199-323 0 0 323 204 0 27 28c15 16 27 29 27 31 1 1-64 2-159 2l-160 0z m279 120l-99-98 34-32 33-32 98 98c54 54 98 99 98 100 0 2-61 63-64 63-1 0-46-44-100-99z m-123-133c-3-9-8-18-9-22-2-3-4-7-4-8 0-1-3-9-7-18-4-10-8-18-8-19 0-1-3-8-6-15-3-7-6-13-6-13 1-1 3 0 6 2 3 1 9 4 14 6 5 2 15 6 23 10 9 4 16 7 16 7 1 0 7 2 14 5 25 11 28 13 31 13 7 0 5 6-6 17-7 6-22 20-32 30l-20 20z"/>
<glyph glyph-name="editbank" unicode="&#83;" d="M183 493c-20-9-62-27-95-41-32-14-60-27-63-30-5-5-5-41 1-47 2-3 28-4 197-4 224 0 202-3 202 29 0 18-1 20-6 23-3 2-34 17-68 32-35 16-76 34-92 41-16 8-32 13-34 13-4 0-22-7-42-16z m-116-143c-3-5-2-183 1-186 4-4 36-4 41 0 3 2 4 18 4 93 0 67-1 91-3 93-5 5-40 4-43 0z m134 2c-3-3-2-188 1-189 5-3 39-2 41 0 2 1 3 42 2 96l-1 93-20 1c-12 0-22 0-23-1z m134-3c-4-4-5-12-5-51l0-45 6 2c3 1 15 4 26 7l19 6 0 37c0 22-1 41-2 43-4 7-38 8-44 1z m5-111c-28-11-51-32-64-58-8-17-8-18-8-56 0-38 0-38 8-55 10-22 35-45 59-57 16-8 18-8 50-8l34 0 20 10c26 13 44 31 57 57 9 19 10 21 10 48 1 25 1 30-5 47-12 32-31 54-63 69-16 8-18 8-51 8-27 0-38-1-47-5z m110-50c12-11 21-22 21-24 0-2-22-26-49-53l-49-49-27-3c-15-1-27-2-28-2 0 0 1 12 3 26l2 26 49 50c27 28 51 51 53 51 2 0 14-10 25-22z m-64-43c-18-19-33-34-33-35 0-2 18-18 20-18 1 0 17 14 35 32l34 31-11 12c-5 6-10 11-11 11-1 0-16-14-34-33z m-363-13c-1-7-1-15 0-20l2-8 113-1 113-1 0 41-227 0z m-17-47c-4-1-5-30-2-37 1-4 15-4 132-4l131 0-2 5c0 3-4 13-7 22l-5 16-122 0c-67 0-124-1-125-2z"/>
<glyph glyph-name="editbankbranch" unicode="&#84;" d="M237 503c-9-5-18-10-21-11-2-2-9-6-14-9-8-5-74-43-96-56-5-2-13-7-19-11-5-4-11-6-12-6-1 0-4-2-8-5-8-6-20-13-41-24-23-12-26-16-25-32l0-12 15-1 15-1 0-33 15 0 0-31 95 0 0 16c0 14 0 15 6 15 6 0 7-1 7-15l0-16 47 1 48 1 0 14c-1 15-1 15 5 15 7 0 7 0 7-15l0-16 48 1 48 1 1 14c1 13 1 15 6 15 4 0 5-2 5-15l0-16 97 0 0 15c0 15 0 16 7 17 7 0 7 1 8 16l1 17 12-1c6 0 13 0 15 1 6 4 2 35-4 35-2 0-29 15-51 29-7 3-15 8-35 19-12 8-34 21-53 32-9 5-19 11-23 13-4 2-8 4-10 6-2 2-13 8-25 14-11 6-22 12-24 14-8 6-23 14-27 14-3 0-12-4-20-9z m33-19c6-4 12-8 13-8 1 0 6-3 12-7 10-7 18-11 61-35 8-4 17-9 20-12 4-2 12-7 18-10 34-20 94-55 97-58 1 0-106-1-237-1l-237 0 11 7c7 4 20 11 31 17 10 6 23 13 27 16 4 3 16 10 25 15 32 18 83 47 87 50 3 3 18 11 35 20 6 3 14 8 16 10 8 5 8 5 21-4z m193-155l0-6-414 0 0 12 414 0z m-217 118c-12-4-25-17-28-29-7-27 18-56 45-51 10 2 24 14 29 25 4 10 2 31-5 40-9 13-27 20-41 15z m26-24c6-7 7-9 6-17-2-13-8-19-20-20-12-2-22 6-24 19-2 8-1 10 6 17 11 11 21 11 32 1z m-209-166c-1-1-2-33-2-72l0-70-6 0c-7-1-8-2-8-16-1-13-2-14-8-15-7-1-7-2-8-17l-1-16-22 0 0-51 247 1 248 0 1 25 1 25-24 0 0 33-15 0 0 31-17 0 1 71c1 76 1 75-13 72l-6-2 0-70 1-71-29 0 0 53c1 30 0 62-1 72l-1 19-8-1-8-1 0-62c0-85 0-80-7-80-8 0-11-7-9-23 1-9 1-9-6-8-7 1-7 2-7 16 0 15 0 15-8 15l-8 0 0 144-6-1c-7-1-8-2-9-12-1-7-1-39-1-71l0-60-30 0 0 144-6 0c-11 0-12-3-11-75l1-69-8 0c-8-1-8-1-8-16 0-16 0-16-7-16-7 0-7 0-7 16l0 16-15 0 0 144-8-1-9-1 0-71-1-71-28 0 0 144-8-1-9-1-1-71 0-71-7 0c-7-1-7-2-8-16-1-13-1-15-7-15-6 0-6 1-6 16 0 15 0 15-8 15l-8 0 0 71-1 71-15 0-1-71 0-71-28 0 1 60c0 32-1 64-1 71-2 10-3 11-8 12-4 1-8 0-9-1z m400-200l0-7-414 0 0 14 414 0z m23-30l0-7-230 0-230-1 0 14 460 0z"/>
<glyph glyph-name="editmember" unicode="&#85;" d="M178 499c-49-17-74-58-74-118 1-44 16-87 45-122 11-14 13-18 13-29 0-19-4-23-37-36-60-25-102-56-115-83-7-14-6-39 0-52 16-30 73-48 169-52l23-1 0 9c0 9 23 93 29 104 1 3 18 21 38 41 19 19 33 36 32 36-23 11-28 17-26 35 1 10 5 16 15 29 28 37 43 81 43 122 0 27-3 43-12 62-10 22-27 38-49 49-19 10-20 10-50 11-25 0-34-1-44-5z m250-233c-5-5-10-9-11-9-2-2 68-70 71-70 6 0 19 19 19 27 0 10-1 12-28 37-20 21-23 23-32 23-6 0-12-2-19-8z m-29-27l-9-8 35-36c20-19 37-35 38-35 1 0 6 3 11 7l8 8-37 36-37 37z m-78-78l-59-58-12-41c-6-22-12-43-11-46 1-13 6-12 52 1l43 12 59 58c33 32 60 59 60 60 0 3-69 73-72 73 0 0-27-26-60-59z m-28-79c17 0 19-2 19-16 0-8 2-13 4-14 3-2-2-4-16-8-21-6-21-6-26-2-4 5-4 6 2 26 4 11 7 19 7 17 1-2 5-3 10-3z"/>
<glyph glyph-name="email-1" unicode="&#86;" d="M32 409c-9-5-17-13-25-25l-7-11 0-167c0-164 0-166 5-175 8-12 18-23 26-27 6-3 43-4 227-4l219 0 10 8c6 5 14 14 18 20l7 11 0 336-8 13c-5 6-13 14-18 18l-8 6-220 0c-157 0-222-1-226-3z m417-38c-3-4-10-13-18-20-7-8-23-27-37-42-13-16-25-29-27-31-1-2-16-18-32-36-16-18-30-34-31-35-1 0-6-6-11-12-20-24-35-39-38-37-4 2-40 42-109 121-9 11-23 26-31 35-25 28-47 53-50 57-4 5 1 5 193 5l196 0z m34-196c0-115-1-126-5-132-6-9-10-9-20 2-11 14-37 43-52 60-7 8-21 23-30 33-9 11-23 26-30 34-7 8-13 16-13 16 0 2 8 11 60 70 13 14 38 42 56 63l34 37 0-28c1-16 1-86 0-155z m-423 151c14-15 42-46 62-69 19-22 41-46 47-53l13-14-29-32c-55-61-101-112-104-117-4-7-10-6-13 1-2 6-4 316-2 314 1-1 13-14 26-30z m185-208c10-13 15-10 39 16 12 14 22 26 23 28 1 2 5-1 11-7 8-10 41-46 74-83 9-11 20-24 25-29l8-10-338 0 7 10c5 5 20 23 36 40 15 18 38 43 50 57l23 26 18-21c10-11 21-24 24-27z"/>
<glyph glyph-name="excesssetup" unicode="&#87;" d="M34 509c-11-7-20-17-26-29l-7-13 0-210c-1-183 0-210 3-218 2-4 4-9 4-10 0-2 5-9 12-16l13-13 443 0 10 9c6 5 14 17 18 26l8 16 0 407-7 16c-9 19-11 22-24 31l-9 7-216 0c-165 0-218-1-222-3z m429-53c3-3 5-7 5-9 0-2 1-4 3-4 2 0 1-375-2-382-2-4-5-7-7-8-2-1-96-2-209-2l-204 0-5 7c-4 7-4 20-5 197l-1 190 7 8 7 8 203 0c200 0 203 0 208-5z m-239-64c-2-4-3-8-3-8 2 0-8-20-11-22-1-1-10 2-20 7l-16 7-8-5c-9-6-33-33-33-36 0-2 9-23 13-31 2-3 1-6-4-9-4-3-9-6-10-6-2 0-8-2-13-4l-9-4 1-30 0-29 17-6c19-7 22-9 18-15-9-18-13-30-12-34 2-5 29-33 36-37 4-2 8-1 17 3 6 3 13 7 16 8 2 1 5 2 7 2 2 0 10-14 11-23 4-14 5-15 35-15l28 0 5 8c2 5 4 10 4 11 0 6 7 19 10 19 2 0 10-3 18-7 8-5 17-8 18-8 4 0 42 38 42 42 0 2-2 6-5 9-2 4-5 8-5 10 0 3-1 7-3 10-5 7-3 10 12 15 24 8 24 8 24 38 0 30-1 31-22 37-19 5-20 7-9 28l9 18-15 16c-8 8-18 18-22 20-7 6-9 5-33-8-8-4-12-2-15 6-2 4-3 7-3 8 1 0-1 5-4 12l-6 10-56 0z m40-27c0-2 2-9 5-16 5-9 9-12 20-17 7-4 15-7 16-7 2 0 8 3 15 7 7 3 13 5 13 4 0-2 2-3 5-4l6-2-6-9c-4-6-6-10-6-10 1-1 0-3-1-5-3-9 10-40 17-40 1 0 8-2 14-5 16-7 14-13-6-21-8-3-14-6-15-6-2-1-11-28-11-31 0-2 2-8 5-14l5-10-6-5-6-5-10 5c-13 6-14 6-27 0-6-3-12-5-13-5-2 0-6-7-10-16-5-13-7-16-13-17-4 0-7 0-6 1 1 2-1 7-3 13-3 5-5 11-5 13 0 3-26 16-32 16-2 0-9-3-16-6-11-7-21-7-17-1 0 1 0 4-2 5-2 1-2 4 3 10 3 5 6 9 6 9-1 1 0 3 1 5 0 3-2 11-6 19-7 13-9 15-24 21-12 5-16 7-16 11 0 4 4 7 16 11 14 6 17 8 22 18 7 15 7 25 1 35-7 9-7 15-2 19 4 3 7 2 20-3 14-7 15-7 23-4 5 3 12 6 16 7 4 2 7 5 7 7 0 2 2 8 5 14 2 5 4 10 3 11-1 1 2 2 6 2 6 0 9-2 9-4z m-15-73c-26-5-40-31-31-56 1-4 3-7 3-8 0-2 10-9 19-14 22-11 50 3 56 27 8 31-16 57-47 51z"/>
<glyph glyph-name="exit" unicode="&#88;" d="M235 508c-4-2-9-8-12-14-5-10-5-15-5-129 0-113 0-120 4-129 8-14 16-18 34-18 12 0 18 1 24 5 14 10 14 11 14 142 0 127 0 130-12 141-8 6-37 8-47 2z m-130-61c-49-34-82-79-98-134-7-26-8-87-1-114 14-56 46-107 91-143 30-25 61-39 109-53 3 0 23-1 44-2 31 0 42 0 60 4 38 9 67 22 98 45 66 49 104 124 104 203 0 63-19 112-62 158-19 21-58 50-66 50-2 0-7-4-11-7-7-7-7-9-7-34 0-31 0-31 27-59 21-20 38-50 42-73 4-19 3-54-1-73-13-59-60-112-119-132-36-11-86-11-122 3-54 19-99 68-114 124-4 15-5 62-2 78 5 28 22 55 51 82 18 17 20 24 20 52 0 21 0 24-6 31-4 4-9 8-12 8-4 0-15-6-25-14z"/>
<glyph glyph-name="fetch" unicode="&#89;" d="M138 503c-11-6-23-19-29-31-4-7-6-17-6-36l-1-26-26-1c-30-1-41-6-56-21-18-19-18-13-17-186l1-155 8-12c4-7 12-17 18-21l11-8 160 0 160-1 13 7c13 7 25 22 30 36 2 5 3 19 3 31l0 23 26 1c20 1 29 2 37 7 13 6 31 26 35 38 1 6 2 61 1 163l0 154-8 13c-4 7-13 16-20 21l-13 8-159 0c-144 0-160-1-168-4z m316-38c12-6 12-2 12-158l0-148-6-7c-6-7-8-7-30-8l-23-1 0 110c-1 107-1 109-7 120-3 5-10 14-16 19-18 17-24 18-139 18l-102 0 0 22c0 20 1 22 8 29l7 7 145 0c106 0 147 0 151-3z m-101-100c4-2 9-6 11-9 1-3 2-56 2-151l0-147-15-14-145 0c-149 0-152 0-159 10-2 3-3 39-3 152l0 149 5 5c3 3 8 6 10 7 2 1 67 1 145 1 122 1 143 0 149-3z m-158-58c-3-1-6-4-8-7-2-3-3-31-3-75l0-70-23 24c-20 19-26 23-32 23-13 0-23-12-20-24 1-3 21-25 44-48 39-39 44-43 52-43 8 0 13 4 52 43 39 39 43 44 43 52 0 12-9 20-21 20-7 0-12-3-31-22l-23-22 0 137-7 7c-8 8-13 9-23 5z"/>
<glyph glyph-name="gotofirst" unicode="&#90;" d="M128 387c-79-80-125-128-125-131 0-5 248-256 253-256 2 0 3 49 3 124l0 125 124-125c68-68 125-124 127-124 1 0 2 98 2 256 0 158-1 256-2 256-2 0-59-56-127-124l-124-125 0 125c0 75-1 124-3 124-1 0-59-57-128-125z"/>
<glyph glyph-name="gotolast" unicode="&#48;" d="M3 256c0-158 1-256 2-256 1 0 58 56 127 124l124 125 0-125c0-75 1-124 2-124 5 0 254 251 254 256 0 5-249 256-254 256-1 0-2-49-2-124l0-125-124 125c-69 68-126 124-127 124-1 0-2-98-2-256z"/>
<glyph glyph-name="next" unicode="&#49;" d="M0 257c0-227 1-254 4-254 2 0 4 1 5 3 1 2 3 4 5 4 2 0 5 3 9 5 3 3 6 5 8 5 1 0 5 3 8 6 3 3 9 6 12 7 4 0 8 3 11 6 2 2 6 5 8 5 2 0 4 1 4 2 0 2 2 3 4 3 1 0 4 2 6 5 3 3 6 5 9 5 2 0 4 1 4 2 0 2 2 3 4 3 2 0 4 1 4 3 0 1 2 2 4 2 2 0 4 1 4 3 0 1 1 2 3 2 2 0 6 2 8 5 3 2 9 5 12 7 4 0 7 2 7 4 0 1 2 2 4 2 2 0 4 1 4 3 0 1 2 2 5 2 2 0 6 3 8 5 2 3 5 6 8 6 3 0 5 1 5 2 0 2 1 3 3 3 2 0 5 2 7 5 2 3 6 5 8 5 3 0 5 1 5 2 0 2 1 3 4 3 2 0 3 1 3 3 0 1 2 2 3 2 1 0 7 3 12 7 5 3 11 6 14 6 2 0 5 2 7 5 2 3 5 5 7 5 2 0 3 1 3 3 0 1 2 2 5 2 3 0 6 3 8 5 2 3 6 6 8 6 3 0 5 1 5 2 0 2 2 3 4 3 2 0 4 1 4 2 0 1 5 5 11 8 7 3 12 7 12 7 0 1 5 4 11 7 7 3 12 6 12 7 0 1 2 2 4 2 3 0 7 2 9 5 2 3 5 5 7 5 1 0 3 1 3 3 0 1 2 2 4 2 3 0 7 3 9 5 2 3 5 6 8 6 2 0 4 1 4 2 0 2 2 3 3 3 2 0 5 2 8 5 3 3 8 5 10 5 4 0 5 2 5 6 0 5-1 7-5 7-2 0-7 2-10 5-3 3-6 5-8 5-1 0-3 1-3 2 0 2-2 3-4 3-3 0-6 2-8 5-2 3-6 5-9 5-2 0-4 2-4 3 0 1-2 2-3 2-2 0-5 3-7 6-2 2-6 5-9 5-2 0-4 0-4 2 0 1-5 4-12 7-6 2-11 5-11 6 0 1-5 4-12 8-6 3-11 7-11 8 0 1-2 2-4 2-2 0-4 1-4 2 0 2-2 3-5 3-2 0-6 2-8 5-2 3-5 5-8 5-3 0-5 2-5 3 0 1-1 2-3 2-2 0-5 3-7 6-2 2-5 5-7 5-3 0-9 2-14 6-5 4-11 6-12 6-1 0-3 2-3 3 0 2-1 3-3 3-3 0-4 1-4 2 0 2-2 3-5 3-2 0-6 2-8 5-2 3-5 5-7 5-2 0-3 1-3 2 0 2-2 3-5 3-3 0-6 2-8 5-2 3-6 5-8 5-3 0-5 2-5 3 0 1-2 2-4 2-2 0-4 1-4 3 0 1-3 3-6 4-4 1-9 4-12 6-3 3-7 5-9 5-2 0-3 2-3 3 0 1-2 2-4 2-2 0-4 2-4 3 0 2-2 3-4 3-2 0-4 1-4 2 0 2-2 3-4 3-3 0-6 2-9 5-2 3-5 5-6 5-2 0-4 1-4 2 0 2-2 3-4 3-3 0-7 2-9 5-2 3-5 5-7 5-2 0-8 3-14 7-5 3-10 6-11 6 0 0-3 2-6 5-4 3-7 5-9 5-2 0-4 2-5 4-1 2-3 4-5 4-3 0-4-28-4-255z m417 0l0-254 95 0 0 509-95 0z"/>
<glyph glyph-name="preview" unicode="&#50;" d="M51 256l0-256 410 0 0 429-19 17c-10 9-22 20-27 25-5 4-9 8-10 8-1 0-7 5-13 10-7 6-16 14-21 17l-8 6-312 0z m300 196l0-37 82 0 0-392-354 0 0 233-1 233 273 0z m-130-136c-36-10-93-46-93-60 0-9 31-33 60-48 43-21 91-21 133 0 29 15 60 39 60 48 0 8-38 38-64 50-30 14-68 18-96 10z m52-23c30-12 37-43 14-63-21-19-58-14-72 9-7 11-6 32 3 42 13 14 37 20 55 12z m-35-21c-6-4-8-8-8-15 0-6 2-10 8-15 11-9 23-9 33 0 9 8 11 14 6 24-7 14-26 17-39 6z"/>
<glyph glyph-name="previous" unicode="&#51;" d="M0 257l0-254 95 0 0 509-95 0z m503 251c-1-2-3-4-5-4-2 0-5-2-9-5-3-3-6-5-8-5-1 0-5-2-8-5-3-3-9-6-12-7-4-1-8-4-11-6-2-3-6-5-8-5-2 0-4-1-4-3 0-1-2-2-4-2-1 0-4-2-6-5-3-3-6-5-9-5-2 0-4-1-4-3 0-1-2-2-4-2-2 0-4-1-4-3 0-1-2-3-4-3-2 0-4-1-4-2 0-1-1-3-3-3-2 0-6-2-8-4-3-3-9-6-12-7-4-1-7-3-7-4 0-2-2-3-4-3-2 0-4-1-4-2 0-1-2-3-5-3-2 0-6-2-8-5-2-3-5-5-8-5-3 0-5-1-5-3 0-1-1-2-3-2-2 0-5-2-7-5-2-3-6-5-8-5-3 0-5-1-5-3 0-1-1-2-4-2-2 0-3-1-3-3 0-1-2-3-3-3-1 0-7-2-12-6-5-4-11-6-14-6-2 0-5-3-7-5-2-3-5-6-7-6-2 0-3-1-3-2 0-1-2-3-5-3-3 0-6-2-8-5-2-3-6-5-8-5-3 0-5-1-5-3 0-1-2-2-4-2-2 0-4-1-4-2 0-1-5-5-11-8-7-4-12-7-12-8 0-1-5-4-11-6-7-3-12-6-12-7 0-2-2-2-4-2-3 0-7-3-9-5-2-3-5-6-7-6-1 0-3-1-3-2 0-1-2-3-4-3-3 0-7-2-9-5-2-3-5-5-8-5-2 0-4-1-4-3 0-1-2-2-3-2-2 0-5-2-8-5-3-3-8-5-10-5-4 0-5-2-5-7 0-4 1-6 5-6 2 0 7-2 10-5 3-3 6-5 8-5 1 0 3-1 3-3 0-1 2-2 4-2 3 0 6-3 8-6 2-2 6-5 9-5 2 0 4-1 4-2 0-2 2-3 3-3 2 0 5-2 7-5 2-3 6-5 9-5 2 0 4-1 4-2 0-1 5-4 12-7 6-3 11-6 11-7 0 0 5-4 12-7 6-3 11-7 11-8 0-1 2-2 4-2 2 0 4-1 4-3 0-1 2-2 5-2 2 0 6-3 8-6 2-2 5-5 8-5 3 0 5-1 5-2 0-2 1-3 3-3 2 0 5-2 7-5 2-3 5-5 7-5 3 0 9-3 14-6 5-4 11-7 12-7 1 0 3-1 3-2 0-2 1-3 3-3 3 0 4-1 4-3 0-1 2-2 5-2 2 0 6-2 8-5 2-3 5-5 7-5 2 0 3-1 3-3 0-1 2-2 5-2 3 0 6-3 8-6 2-2 6-5 8-5 3 0 5-1 5-2 0-2 2-3 4-3 2 0 4-1 4-2 0-1 3-3 6-4 4-1 9-4 12-7 3-2 7-5 9-5 2 0 3-1 3-2 0-2 2-3 4-3 2 0 4-1 4-2 0-2 2-3 4-3 2 0 4-1 4-3 0-1 2-2 4-2 3 0 6-2 9-5 2-3 5-5 6-5 2 0 4-1 4-3 0-1 2-2 4-2 3 0 7-3 9-6 2-2 5-5 7-5 2 0 8-3 14-6 5-4 10-7 11-7 0 0 3-2 6-5 4-2 7-5 9-5 2 0 4-2 5-4 1-2 3-3 5-3 3 0 4 27 4 254 0 227-1 255-4 255-2 0-4-2-5-4z"/>
<glyph glyph-name="print" unicode="&#52;" d="M150 509c-2-2-12-108-12-123l0-7-64-1c-64 0-64 0-69-7-5-5-5-11-5-137 0-125 0-131 5-137 5-6 6-6 49-7l45-2-8-40c-5-32-7-41-4-44 5-6 333-6 338 0 3 3 1 12-4 44l-8 40 45 2c43 1 44 1 49 7 5 6 5 12 5 137 0 126 0 132-5 137-5 7-5 7-65 7l-61 1 0 8c0 20-9 119-11 122-2 4-218 4-220 0z m203-63c2-23 4-48 5-55l1-12-198 0 1 11c1 6 3 31 5 55l3 44 180 0z m115-212l0-98-27 0c-16 0-30-1-32-2-8-3-5 8 3 12 20 12 20 47 0 59-9 5-13 5-156 5-143 0-147 0-156-5-9-6-16-19-16-30 0-10 9-22 18-26 6-3 7-5 6-10-1-4-2-6-5-5-2 1-16 2-32 2l-27 0 0 197 424 0z m-95-60c3-15 9-45 21-112l7-39-290 0 2 12c1 7 6 31 10 55 4 23 9 47 10 53 1 7 4 19 5 28l4 16 228 0z m-241 106c-5-7-5-12 1-17 4-4 16-4 124-4 112 0 119 0 123 4 5 6 5 12-1 17-4 4-16 4-124 4-112 0-119 0-123-4z"/>
<glyph glyph-name="register" unicode="&#53;" d="M7 505l-7-8 0-377 15-15 210 0 0-8c0-8 0-9-18-14-36-11-70-37-87-66-4-7-7-14-7-15 0-1 64-2 143-2 79 0 143 1 143 1 0 6-17 29-31 44-20 19-45 34-69 40-12 3-12 3-12 11l0 9 104 0c66 0 105 1 108 3 13 6 13 4 13 200 0 131-1 186-3 189-1 3-5 8-8 10-5 4-22 5-246 5l-240 0z m479-197l0-177-463 0 0 355 463 0z m-428 152l-7-7 0-144c0-142 0-145 6-151l5-7 94 0c77 0 95 1 99 4 5 3 5 8 6 128l1 124-51 0 1 21c0 11 0 25-1 29l-1 9-146 0z m132-125c2-1-3-5-11-10-8-4-14-9-15-9 0-1 10-13 24-28l25-27-11-13-11-13-12 13c-6 6-17 19-25 27-7 8-13 15-14 14-1 0-5-8-9-16l-7-15-9 43c-4 24-9 46-9 49-1 5-1 5 40-5 23-5 43-10 44-10z m28 104l0-24 21 0c14 0 22 1 22 3 0 3-39 45-41 45-1 0-2-11-2-24z m61-61c0-5 2-7 6-8 3 0 46-1 95 0l90 0 1 8 0 7-192 0z m0-94l0-8 192 0 0 16-192 0z m0-92l0-8 192 0 0 16-192 0z"/>
<glyph glyph-name="risk" unicode="&#54;" d="M243 506c-5-6-21-35-140-270-34-69-72-142-83-164-20-39-23-49-17-60 6-12-3-12 253-12 256 0 247 0 253 12 6 11 3 21-13 53-9 17-46 89-82 160-121 239-140 275-145 281-3 4-8 6-13 6-5 0-10-2-13-6z m43-126c16-31 49-98 75-148 26-51 57-112 69-137 13-24 23-44 23-45 0-1-88-1-197-1-109 0-197 0-197 1 0 0 26 51 57 113 31 62 75 148 98 192 22 44 41 80 42 80 1 0 14-25 30-55z m-39-32c-11-7-11-9-11-80l0-69 7-7c9-10 17-10 26 0l7 7 0 137-7 7c-8 8-14 9-22 5z m-6-191c-5-5-5-10-5-29 0-21 0-23 7-29 9-9 16-9 26 0 7 6 7 7 7 29 0 28-4 36-20 36-8 0-11-2-15-7z"/>
<glyph glyph-name="save" unicode="&#55;" d="M27 508c-11-6-17-12-22-22-5-9-5-19-5-231 0-246-1-233 17-246l9-8 460 0 9 8c18 13 17 4 17 216l0 191-41 48c-22 25-42 47-43 47-1 1-2-30-2-69 0-67 0-71-5-77-3-4-9-10-12-13-7-5-11-5-151-6-161-1-155-1-168 17-6 9-6 11-6 79l0 70-24 0c-18 0-28-1-33-4z m391-276c14-10 15-13 15-94 0-82-1-84-15-94l-9-6-150 0c-146 0-150 1-159 6-14 9-16 14-16 94 0 42 2 74 3 78 3 9 12 16 22 19 4 2 69 3 155 2 140 0 147 0 154-5z m-297-47c-2 0-3-4-3-7l0-6 281 0 0 6c0 3-1 7-4 7-5 2-269 2-274 0z m-1-26c-1 0-2-4-2-7l0-6 281 0 0 15-139 0c-76 0-140 0-140-2z m-2-30l1-7 279 0 1 7 1 7-282 0z m222 318c0-47 1-65 4-68 4-4 48-4 52 0 3 3 3 21 3 68l0 65-59 0z"/>
<glyph glyph-name="search" unicode="&#56;" d="M156 511c-1-1-6-2-13-2-12-1-40-12-55-21-30-17-53-42-69-75-15-29-20-54-18-85 3-64 40-119 99-149 57-29 127-22 181 19 58 44 84 125 60 192-10 30-21 48-43 70-31 32-75 51-118 52-12 0-23 0-24-1z m45-28c47-9 88-39 107-79 12-24 15-39 15-69 0-69-43-124-111-142-33-9-81-3-112 15-21 12-46 38-58 60-12 24-15 43-15 76 1 21 2 29 7 43 20 51 64 88 116 96 4 0 7 1 8 2 1 1 34-1 43-2z m-137-87c-8-13-16-40-16-57 0-56 40-109 95-124 23-7 60-6 68 2 5 5 5 6 0 11-3 3-6 4-13 3-56-7-100 15-122 60-7 16-8 20-8 46 0 25 1 29 7 44 6 13 6 17 4 20-5 6-10 4-15-5z m239-187c-17-17-21-22-20-27 1-3 4-7 8-8 5-3 7-2 14 3 11 7 35 35 35 40 0 4-9 13-13 13-2 0-12-9-24-21z m39-11c-24-6-35-37-20-55 14-16 29-32 74-77 67-65 67-66 80-66 30 0 46 31 30 54-18 24-135 137-147 142-9 4-9 4-17 2z"/>
<glyph glyph-name="searchfile" unicode="&#57;" d="M74 450c-33-34-63-65-67-69l-7-8 0-373 430 0 0 23 0 22-14 12c-10 10-15 12-19 11-5-2-5-4-5-18l0-17-356 0 0 325 123 0 0 121 233 0 0-189 12-5c7-2 13-5 15-6 1-1 4-3 6-3 5 0 5 7 5 118l0 118-296 0z m49-30l0-28-57 0 28 28c15 15 28 28 28 28 1 0 1-13 1-28z m214-148c-45-12-77-59-72-105 6-59 68-100 125-84l15 4 12-11c6-6 19-18 29-27l17-17 24 23c13 13 24 24 25 26 0 1-12 14-27 29l-27 27 4 13c6 20 4 47-6 68-10 21-23 35-45 46-16 8-20 9-42 9-14 0-28 0-32-1z m48-37c16-5 33-23 38-41 4-13 5-17 2-28-9-37-42-56-81-46-13 4-28 16-34 29-26 49 21 102 75 86z m-316 17l0-19 194 0 5 7c2 4 10 12 16 19l11 12-226 0z m0-72l0-19 179 0 0 39-179 0z m0-74l0-19 224 0-10 11c-6 6-13 15-17 19l-5 8-192 0z"/>
</font>
</defs>
</svg>
